<svg xmlns="http://www.w3.org/2000/svg" xmlns:xlink="http://www.w3.org/1999/xlink" id="Слой_1" x="0" y="0" enable-background="new 17.2 134.6 562 573.1" version="1.1" viewBox="17.2 134.6 562 573.1" xml:space="preserve"><path fill="#FFF" d="M298.2,421.3L219,340.4l-2.9-2.9c-45.4-46.5-119.5-46.5-164.7-0.2c-45.6,46.3-45.6,121.5,0,167.8	c45.2,46.4,119,46.4,164.4,0L298.2,421.3z"/><path fill="#FFF" d="M298.2,421.2v114.3l0.2,4.2c0,65.5-52.2,119-116.5,119c-64.3,0-116.5-53.1-116.5-118.6	c0-65.6,52.4-118.8,116.5-118.8H298.2z"/><path fill="#FFF" d="M298.2,421.2v114.3l0.2,4.2c0,65.5-52.2,119-116.5,119c-64.3,0-116.5-53.1-116.5-118.6	c0-65.6,52.4-118.8,116.5-118.8H298.2z"/><path fill="#FFF" d="M298.2,421.2v114.3l0.2,4.2c0,65.5-52.2,119-116.5,119c-64.3,0-116.5-53.1-116.5-118.6	c0-7.3,0.8-14.4,2-21.2c45.4,32.2,108.2,27.7,148.6-13.7l82.4-83.8V421.2z"/><path fill="#8ABF42" d="M181.9,436.1c-56.1,0-101.6,46.5-101.6,103.8c0,57.1,45.6,103.5,101.6,103.5c56.2,0,101.7-46.4,101.7-103.5	v-4.5v-99.3H182.1H181.9z"/><path fill="#FFF" d="M298.2,421.2l79.2,80.8l3.3,2.9c45.2,46.4,45.5,121.8,0,168.1c-45.6,46.3-119.2,46.3-164.8,0	c-45.4-46.3-45.4-121.5,0-168L298.2,421.2z"/><path fill="#8ABF42" d="M226.5,515.6c-39.8,40.5-39.8,106.2,0,146.6c39.6,40.5,104,40.5,143.8,0c39.6-40.4,39.6-106.1,0-146.6	l-3.3-3l-68.7-70.2l-71.7,73.1V515.6z"/><path fill="#FFF" d="M298.2,421.2h112.2l4.1-0.2c64.4,0,116.5,53.2,116.5,118.8c0,65.6-52,118.6-116.3,118.6	c-64.3,0-116.5-53.1-116.5-118.6V421.2z"/><path fill="#8ABF42" d="M313.1,539.8c0,57.3,45.4,103.7,101.6,103.7c56,0,101.4-46.4,101.4-103.7c0-57.3-45.4-103.6-101.4-103.6	h-4.3h-97.4v103.3V539.8z"/><path fill="#FFF" d="M298.2,421.2l79.2-80.9l3.1-3.1c45.4-46.3,119.2-46.5,164.6-0.2c45.4,46.4,45.4,121.5,0,167.9	c-45.4,46.4-119.2,46.4-164.6,0L298.2,421.2z"/><path fill="#8ABF42" d="M391.1,494.3c39.4,40.6,103.8,40.6,143.6,0c39.8-40.4,39.8-106,0-146.5c-39.8-40.5-104.1-40.5-143.6,0	l-3.3,3.2l-68.6,70.3l71.5,73L391.1,494.3z"/><path fill="#FFF" d="M298.2,421.2V306.8v-4.3c0-65.5,51.9-118.8,116.5-118.8c64.2,0,116.1,52.9,116.1,118.6	c0,65.6-52,118.8-116.1,118.8H298.2z"/><path fill="#F89F31" d="M414.7,406.1c56,0,101.4-46.4,101.4-103.7c0-57.1-45.4-103.6-101.4-103.6c-56.3,0-101.8,46.5-101.8,103.6	l0.2,4.4v99.3h101.1H414.7z"/><path fill="#FFF" d="M298.2,421.2L219,340.3l-3.1-2.9c-45.4-46.5-45.4-121.8,0-168.1c45.2-46.4,119.1-46.4,164.6,0	c45.4,46.3,45.4,121.6,0,167.9L298.2,421.2z"/><path fill="#0080C5" d="M370.1,327.6c39.6-40.5,39.6-106.2,0-146.6c-39.8-40.5-104-40.5-143.7,0c-39.8,40.4-39.8,106.1,0,146.6	l2.9,3.1l69,70.1l71.6-73L370.1,327.6z"/><path fill="#FFF" d="M298.2,422.1H186.1l-4.2,0.1c-64.1,0-116.5-53.2-116.5-118.8c0-65.5,52.2-118.7,116.3-118.7	c64.3,0,116.6,53.2,116.6,118.8V422.1z"/><path fill="#0080C5" d="M283.5,303.5c0-57.3-45.4-103.6-101.8-103.6c-56,0-101.6,46.3-101.6,103.5c0,57.2,45.6,103.7,101.6,103.7	l4.4-0.1h97.4V303.8V303.5z"/><path fill="#FFF" d="M298.2,422.1l-281,0.1c0-30.4,11.2-60.8,34.2-84c45.2-46.3,119-46.3,164.4,0L298.2,422.1z"/><path fill="#0080C5" d="M205.4,348.9l71.9,73.3h-95.5c-51.6,0-95.5,34.3-110.7,81.9c-3.1-2.7-6.4-5.5-9.3-8.7	c-39.8-40.5-39.8-106,0-146.5C101.3,308.4,165.8,308.4,205.4,348.9"/><path fill="#005DA9" d="M205.6,349l56.9,58l-80.9,0.2c-46.6,0-85.8-31.9-97.8-75.5c38.6-22.1,89.2-16.8,121.6,17.1L205.6,349z"/><path fill="#005DA9" d="M283.5,303.7l-0.1,82.1l-57.1-58.2c-32.9-33.6-38.7-84.4-17-123.8c42.7,12.2,74.2,52.2,74.2,99.8V303.7z"/><path fill="#005DA9" d="M312.6,386v-82.4c0-47.5,31.5-87.5,74.2-99.8c21.6,39.5,17.6,89-16.4,123.3L312.6,386z"/><path fill="#FFDE4F" d="M333.9,406.1l57.1-58.3c32.9-33.6,82.8-39.3,121.4-17.2c-12.2,43.5-49.4,74.8-95.3,75.6L333.9,406.1z"/><path fill="#48A64A" d="M333.8,436.1h80.8c46.6,0,85.8,31.7,97.8,75.4c-38.9,22.2-88.7,16.3-121.8-17.2L333.8,436.1z"/><path fill="#48A64A" d="M313.1,539.2v-82l57.2,58.2c32.9,33.7,38.5,84.7,16.8,124.1c-42.7-12.2-74-52.4-74-99.9V539.2z"/><path fill="#48A64A" d="M226.6,515.4l56.9-58l0.1,82.4c0,47.5-31.3,87.4-74,99.7c-21.6-39.5-15.8-90.4,17-123.9V515.4z"/><path fill="#48A64A" d="M182.4,436.1h80.4l-57,58.2c-32.8,33.5-83.1,39.3-121.7,17.3c12.1-43.7,51.4-75.5,98-75.5H182.4z"/></svg>