<?xml version="1.0" encoding="UTF-8" standalone="no"?><!DOCTYPE svg PUBLIC "-//W3C//DTD SVG 1.1//EN" "http://www.w3.org/Graphics/SVG/1.1/DTD/svg11.dtd"><svg width="100%" height="100%" viewBox="0 0 24 24" version="1.1" xmlns="http://www.w3.org/2000/svg" xmlns:xlink="http://www.w3.org/1999/xlink" xml:space="preserve" xmlns:serif="http://www.serif.com/" style="fill-rule:evenodd;clip-rule:evenodd;stroke-linejoin:round;stroke-miterlimit:1.41421;"><g id="Artboard_1"><g id="Page_1"><rect id="Fill_1" x="0" y="0" width="24" height="24" style="fill:none;"/><path id="Fill_2" d="M20,20l-16,0c-1.097,0 -2,-0.903 -2,-2l0.01,-12c0,-1.093 0.897,-1.995 1.99,-2l6,0l2,2l8,0c1.097,0 2,0.903 2,2l0,10c0,1.097 -0.903,2 -2,2Zm-9,-9l0,4l4,0l0,2l4,-4l-4,-4l0,2l-4,0Z" style="fill-rule:nonzero;"/></g></g></svg>
