<?xml version="1.0" encoding="utf-8"?>
<!-- Generator: Adobe Illustrator 19.2.0, SVG Export Plug-In . SVG Version: 6.00 Build 0)  -->
<svg version="1.1" id="Layer_1" xmlns="http://www.w3.org/2000/svg" xmlns:xlink="http://www.w3.org/1999/xlink" x="0px" y="0px"
	 viewBox="0 0 187 43" style="enable-background:new 0 0 187 43;" width="187" height="43" xml:space="preserve">
<style type="text/css">
	.st0{fill:#77777A;}
	.st1{fill:none;}
	.st2{fill:#77BC1F;}
	.st3{fill:#F38B00;}
	.st4{fill:#0071CE;}
	.st5{fill:#002F87;}
	.st6{fill:#F9BE00;}
	.st7{fill:#00AF41;}
</style>
<g>
	<path class="st0" d="M59.7,4.4h3.2l11.9,30.2h-3.1L68,25.2H54.2l-3.7,9.4h-3.1L59.7,4.4z M55.1,22.7H67L61.1,7.2L55.1,22.7z"/>
	<rect x="75.6" y="4.4" class="st0" width="2.7" height="30.2"/>
	<path class="st0" d="M90.4,15h-4.3v19.6h-2.7V15h-3.7v-2.2h3.7v-2c0-3.8,1-6.4,5.3-6.4c0.8,0,1.4,0,2.2,0.2v2.3
		c-0.7-0.1-1.3-0.2-1.9-0.2c-3,0-2.9,1.9-2.9,4.2v1.9h4.3V15z"/>
	<path class="st0" d="M91.4,12.7h2.5v5.1H94c1.4-3.5,4.3-5.6,8.3-5.4v2.7c-4.8-0.3-8.2,3.3-8.2,7.8v11.6h-2.7V12.7z"/>
	<path class="st0" d="M104.2,24.4c0.1,3.9,2.1,8.6,7.2,8.6c3.9,0,6-2.3,6.9-5.6h2.7c-1.1,4.9-4,7.8-9.6,7.8c-7,0-9.9-5.3-9.9-11.6
		c0-5.8,2.9-11.6,9.9-11.6c7.1,0,9.9,6.1,9.6,12.3H104.2z M118.4,22.1c-0.1-4-2.6-7.8-7-7.8c-4.4,0-6.8,3.8-7.2,7.8H118.4z"/>
	<path class="st0" d="M136.3,19.1c-0.1-3.3-2.7-4.8-5.7-4.8c-2.4,0-5.2,0.9-5.2,3.8c0,2.4,2.7,3.2,4.6,3.7l3.6,0.8
		c3,0.5,6.2,2.2,6.2,6c0,4.7-4.7,6.6-8.8,6.6c-5.1,0-8.6-2.4-9-7.7h2.7c0.2,3.6,2.9,5.4,6.5,5.4c2.5,0,6-1.1,6-4.1
		c0-2.5-2.4-3.4-4.8-4l-3.4-0.8c-3.5-0.9-6.1-2.1-6.1-5.8c0-4.4,4.4-6.1,8.2-6.1c4.4,0,7.9,2.3,8,7H136.3z"/>
	<path class="st0" d="M157.6,19.6c-0.7-3.3-2.7-5.2-6.2-5.2c-5.1,0-7.7,4.6-7.7,9.3c0,4.7,2.6,9.3,7.7,9.3c3.3,0,6-2.6,6.4-6.2h2.7
		c-0.7,5.2-4.2,8.5-9.1,8.5c-6.7,0-10.4-5.3-10.4-11.6c0-6.3,3.7-11.6,10.4-11.6c4.7,0,8.3,2.5,8.9,7.5H157.6z"/>
	<path class="st0" d="M182.3,23.7c0,6.3-3.6,11.6-10.4,11.6s-10.4-5.3-10.4-11.6c0-6.3,3.6-11.6,10.4-11.6S182.3,17.4,182.3,23.7
		 M164.3,23.7c0,4.7,2.6,9.3,7.7,9.3c5.2,0,7.7-4.7,7.7-9.3c0-4.7-2.5-9.3-7.7-9.3C166.8,14.4,164.3,19,164.3,23.7"/>
	<polygon class="st0" points="181.4,11.7 183.8,11.7 183.8,12 182.8,12 182.8,14.8 182.5,14.8 182.5,12 181.4,12 	"/>
	<polygon class="st0" points="184,11.7 184.4,11.7 185.5,14.4 186.6,11.7 187,11.7 187,14.8 186.7,14.8 186.7,12.1 186.7,12.1
		185.6,14.8 185.3,14.8 184.3,12.1 184.3,14.8 184,14.8 	"/>
	<path class="st1" d="M21.6,21.5v8.6l0,0.3c0,4.9-4,8.9-9,8.9c-4.9,0-9-4-9-8.9c0-0.5,0-1.1,0.1-1.6c3.5,2.4,8.3,2.1,11.4-1
		L21.6,21.5L21.6,21.5L21.6,21.5z"/>
	<g>
		<g>
			<path class="st2" d="M15.3,27.8l5.2-5.2h-7.8c-4.3,0-7.8,3.5-7.8,7.8c0,4.3,3.5,7.8,7.8,7.8c0.3,0,0.7,0,1-0.1
				C11.9,34.8,12.5,30.6,15.3,27.8z"/>
		</g>
	</g>
	<g>
		<g>
			<path class="st2" d="M21.6,30.4v-7.3l-5.5,5.5l0,0c-3.1,3-3.1,8,0,11c3.1,3,8,3,11.1,0c0.2-0.2,0.4-0.5,0.6-0.7
				C24.2,37.7,21.6,34.3,21.6,30.4z"/>
		</g>
	</g>
	<g>
		<g>
			<path class="st2" d="M27.9,27.8l-5.2-5.2v7.8c0,4.3,3.5,7.8,7.8,7.8c4.3,0,7.8-3.5,7.8-7.8c0-0.3,0-0.6-0.1-1
				C34.9,31.1,30.7,30.6,27.9,27.8z"/>
		</g>
	</g>
	<g>
		<g>
			<path class="st2" d="M39.8,16c-0.2-0.2-0.5-0.4-0.7-0.6c-1.2,3.6-4.5,6.1-8.5,6.1h-7.3l5.5,5.5l0,0c3.1,3,8,3,11.1,0
				C42.8,23.9,42.8,19,39.8,16z"/>
		</g>
	</g>
	<g>
		<g>
			<path class="st3" d="M30.5,4.8c-0.3,0-0.7,0-1,0.1c1.7,3.3,1.2,7.5-1.7,10.3l-5.2,5.2h7.8c4.3,0,7.8-3.5,7.8-7.8
				C38.4,8.3,34.9,4.8,30.5,4.8z"/>
		</g>
	</g>
	<g>
		<g>
			<path class="st4" d="M27.1,3.4c-3.1-3-8-3-11.1,0c-0.2,0.2-0.4,0.5-0.6,0.7c3.6,1.2,6.2,4.5,6.2,8.5v7.3l5.5-5.5l0,0
				C30.2,11.4,30.2,6.4,27.1,3.4z"/>
		</g>
	</g>
	<path class="st4" d="M15.3,15.2l0.2,0.2l5,4.9h0l0-7.8v0c0-4.3-3.5-7.8-7.8-7.8c-4.3,0-7.8,3.5-7.8,7.8c0,0.3,0,0.6,0.1,1
		C8.3,11.9,12.5,12.4,15.3,15.2z"/>
	<path class="st1" d="M21.6,21.5L0,21.5c0-2.3,0.9-4.6,2.6-6.3c3.5-3.5,9.2-3.5,12.7,0L21.6,21.5L21.6,21.5z"/>
	<path class="st1" d="M21.6,21.5v8.6l0,0.3c0,4.9-4,8.9-9,8.9c-4.9,0-9-4-9-8.9c0-4.9,4-8.9,9-8.9H21.6L21.6,21.5z"/>
	<path class="st4" d="M4.2,27.6c0.1-0.2,0.1-0.4,0.2-0.5c0,0,0,0,0-0.1c0.1-0.2,0.2-0.4,0.3-0.6c0,0,0-0.1,0.1-0.1
		c0.1-0.2,0.2-0.4,0.3-0.5c0,0,0,0,0-0.1c0.1-0.2,0.2-0.3,0.3-0.5c0,0,0-0.1,0.1-0.1c0.1-0.2,0.2-0.3,0.4-0.5c0,0,0.1-0.1,0.1-0.1
		c0.1-0.1,0.3-0.3,0.4-0.4c0,0,0,0,0,0c0.1-0.1,0.3-0.3,0.4-0.4c0,0,0.1-0.1,0.1-0.1c0.2-0.1,0.3-0.3,0.5-0.4c0,0,0,0,0.1,0
		c0.2-0.1,0.3-0.2,0.5-0.3c0,0,0.1,0,0.1-0.1c0.2-0.1,0.3-0.2,0.5-0.3c0,0,0.1,0,0.1-0.1c0.2-0.1,0.4-0.2,0.5-0.3c0,0,0,0,0,0
		C9.4,22.1,9.6,22,9.8,22c0,0,0.1,0,0.1,0c0.2-0.1,0.4-0.1,0.6-0.2c0,0,0.1,0,0.1,0c0.2,0,0.4-0.1,0.6-0.1c0,0,0.1,0,0.1,0
		c0.2,0,0.4-0.1,0.6-0.1c0,0,0.1,0,0.1,0c0.2,0,0.4,0,0.7,0H20L14.5,16c-3.1-3-8-3-11.1,0c-3.1,3-3.1,8,0,11
		C3.7,27.2,3.9,27.4,4.2,27.6C4.2,27.6,4.2,27.6,4.2,27.6z"/>
	<path class="st5" d="M14.5,16l4.4,4.3H13l-0.3,0c-3.6,0-6.6-2.4-7.5-5.7C8.1,13,12,13.5,14.5,16L14.5,16L14.5,16z"/>
	<path class="st5" d="M20.5,12.6v6.2l-4.2-4.1l-0.2-0.2c-2.5-2.5-3-6.3-1.3-9.3C18.1,6,20.5,9,20.5,12.6L20.5,12.6L20.5,12.6z"/>
	<path class="st5" d="M27.1,14.4l-4.4,4.3v-5.8l0-0.3c0-3.6,2.4-6.6,5.7-7.5C30.1,8,29.7,11.9,27.1,14.4L27.1,14.4L27.1,14.4z"/>
	<path class="st6" d="M30.5,20.3h-6.2l4.2-4.1l0.2-0.2c2.5-2.5,6.4-2.9,9.3-1.3C37.2,17.9,34.1,20.3,30.5,20.3L30.5,20.3L30.5,20.3z
		"/>
	<path class="st7" d="M28.7,27l-4.4-4.3h5.9l0.3,0c3.6,0,6.6,2.4,7.5,5.7C35.1,29.9,31.3,29.5,28.7,27L28.7,27L28.7,27z"/>
	<path class="st7" d="M22.8,30.4v-6.2l4.2,4.1l0.2,0.2c2.5,2.5,3,6.3,1.3,9.3C25.2,36.9,22.8,33.9,22.8,30.4L22.8,30.4L22.8,30.4z"
		/>
	<path class="st7" d="M16.1,28.6l4.4-4.3v5.8l0,0.3c0,3.6-2.4,6.6-5.7,7.5C13.1,34.9,13.6,31.1,16.1,28.6L16.1,28.6L16.1,28.6z"/>
	<path class="st7" d="M12.7,22.6h6.2l-4.2,4.1L14.5,27C12,29.5,8.1,30,5.1,28.3C6.1,25,9.1,22.6,12.7,22.6L12.7,22.6L12.7,22.6z"/>
</g>
</svg>
