<?xml version="1.0" encoding="utf-8"?>
<!-- Generator: Adobe Illustrator 19.0.0, SVG Export Plug-In . SVG Version: 6.00 Build 0)  -->
<svg version="1.1" id="Layer_1" xmlns="http://www.w3.org/2000/svg" xmlns:xlink="http://www.w3.org/1999/xlink" x="0px" y="0px"
	 viewBox="0 0 80 80" style="enable-background:new 0 0 80 80;" xml:space="preserve">
<style type="text/css">
	.st0{fill:#4B4B4B;}
</style>
<g id="XMLID_52_">
	<path id="XMLID_1171_" class="st0" d="M46.5,78.9c-7.7,0-15.5,0-23.2,0c-5.5,0-9.2-3.7-9.2-9.2c0-15.5,0-31,0-46.5
		c0-5.5,3.7-9.2,9.1-9.2c15.6,0,31.2,0,46.7,0c5.2,0,9,3.8,9,9c0,15.5,0,31.1,0,46.6c0,5.5-3.7,9.2-9.2,9.2
		C62,78.9,54.2,78.9,46.5,78.9z M20.5,46.5c0,7.4,0,14.9,0,22.3c0,2.4,1.3,3.7,3.7,3.7c14.8,0,29.7,0,44.5,0c2.5,0,3.7-1.3,3.7-3.7
		c0-14.8,0-29.7,0-44.5c0-2.5-1.3-3.7-3.8-3.7c-14.8,0-29.7,0-44.5,0c-2.4,0-3.7,1.3-3.7,3.7C20.5,31.6,20.5,39.1,20.5,46.5z"/>
	<path id="XMLID_1170_" class="st0" d="M10.8,65.9c-5.6,0.4-9.7-3.5-9.7-8.9c0-15.6,0-31.3,0-46.9c0-5.2,3.8-8.9,9-8.9
		c15.7,0,31.4,0,47,0c5.3,0,9.2,4.2,8.8,9.7c-0.4,0-0.8,0-1.2,0c-15.1,0-30.3,0-45.4,0c-5.1,0-8.5,3.5-8.5,8.5c0,15.1,0,30.2,0,45.3
		C10.8,65,10.8,65.4,10.8,65.9z"/>
	<path id="XMLID_899_" class="st0" d="M37.9,50.5c4.7-4.7,9.3-9.3,13.8-13.9c1.8-1.8,3.5-3.5,5.3-5.3c2.1-2.1,4.8-2,6.9,0.1
		c2.3,2.3,2.5,5,0.4,7.1c-7.7,7.7-15.3,15.3-23,23c-2.1,2.1-4.8,2.1-6.8,0c-2.2-2.2-4.5-4.5-6.7-6.8c-1.9-2-1.9-4.6,0-6.6
		c1.4-1.5,2.9-2.5,5-1.9c0.8,0.2,1.6,0.7,2.2,1.3C36.1,48.5,36.9,49.5,37.9,50.5z"/>
</g>
</svg>
