<?xml version="1.0" encoding="UTF-8"?>
<svg width="164px" height="42px" viewBox="0 0 164 42" version="1.1" xmlns="http://www.w3.org/2000/svg" xmlns:xlink="http://www.w3.org/1999/xlink">
    <!-- Generator: Sketch 63.1 (92452) - https://sketch.com -->
    <title>5. Branding/Logo/Alfresco Copy</title>
    <desc>Created with Sketch.</desc>
    <defs>
        <polygon id="path-1" points="0.062625 21 17.1285032 21 17.1285032 0.00285 0.062625 0.00285"></polygon>
    </defs>
    <g id="1.-🎨-Styles-/-Atoms-/-Molecules-/-Compounds" stroke="none" stroke-width="1" fill="none" fill-rule="evenodd">
        <g id="08.5-Various-(Light)" transform="translate(-90.000000, -430.000000)">
            <g id="Group" transform="translate(81.000000, 371.000000)">
                <g id="5.-Branding/Logo/Alfresco" transform="translate(9.000000, 59.000000)">
                    <path d="M150.663822,14.6874982 C151.950859,14.6874982 153.090793,14.9341281 154.084074,15.4264642 C155.076455,15.919724 155.911387,16.5806368 156.58797,17.4087406 C157.263653,18.2382299 157.776488,19.2067373 158.125576,20.3156482 C158.474664,21.4245591 158.649658,22.605981 158.649658,23.8603758 C158.649658,25.1152325 158.474664,26.2961926 158.125576,27.4051035 C157.776488,28.5140144 157.263653,29.4834454 156.58797,30.3120111 C155.911387,31.1405767 155.076455,31.7959472 154.084074,32.2776607 C153.090793,32.7589123 151.950859,33 150.663822,33 C149.376336,33 148.236402,32.7589123 147.244021,32.2776607 C146.25074,31.7959472 145.416258,31.1405767 144.740125,30.3120111 C144.063542,29.4834454 143.550707,28.5140144 143.202069,27.4051035 C142.852531,26.2961926 142.678437,25.1152325 142.678437,23.8603758 C142.678437,22.605981 142.852531,21.4245591 143.202069,20.3156482 C143.550707,19.2067373 144.063542,18.2382299 144.740125,17.4087406 C145.416258,16.5806368 146.25074,15.919724 147.244021,15.4264642 C148.236402,14.9341281 149.376336,14.6874982 150.663822,14.6874982 Z M86.4361943,14.6873596 L86.4361943,18.9964553 L86.5014234,18.9964553 C87.0250552,17.5850302 87.8379442,16.4987501 88.9396403,15.7371532 C90.0413365,14.9760182 91.3562642,14.6282424 92.8835238,14.695673 L92.8835238,16.8123488 C91.9451251,16.767549 91.0939985,16.8964062 90.3305936,17.1984586 C89.566739,17.5009728 88.9072507,17.9328061 88.3507795,18.4925728 C87.7943082,19.0528014 87.3633466,19.7187946 87.0578947,20.4914759 C86.7519929,21.2646191 86.5994919,22.1102734 86.5994919,23.0284386 L86.5994919,32.9998614 L84.537804,32.9998614 L84.537804,14.6873596 L86.4361943,14.6873596 Z M100.909756,14.687452 C102.262472,14.687452 103.4186,14.9677972 104.379042,15.527564 C105.338584,16.0877926 106.118633,16.8207546 106.71919,17.7282972 C107.318848,18.635378 107.749809,19.6773201 108.011625,20.8531998 C108.273441,22.0290795 108.382306,23.2220477 108.33912,24.4316428 L95.3459429,24.4316428 C95.3459429,25.1932396 95.4494097,25.9830096 95.6567931,26.8004907 C95.8641765,27.6184337 96.1966197,28.3518575 96.6550225,29.0016858 C97.1134253,29.651514 97.6910398,30.1891118 98.3896654,30.6144791 C99.0878412,31.0403083 99.9277215,31.252761 100.909756,31.252761 C102.415423,31.252761 103.593594,30.8491008 104.444271,30.043166 C105.295398,29.2367693 105.884708,28.1615738 106.211753,26.8175793 L108.273441,26.8175793 C107.836632,28.7887712 107.034989,30.3119649 105.868064,31.3871605 C104.700689,32.462356 103.047919,32.9999538 100.909756,32.9999538 C99.5786336,32.9999538 98.4274533,32.7588661 97.4571149,32.2776145 C96.4858768,31.795901 95.694581,31.1349883 95.084127,30.2948763 C94.4732232,29.4547643 94.0206686,28.4807147 93.7260132,27.3718038 C93.4313578,26.2628929 93.2842551,25.0925555 93.2842551,23.8603296 C93.2842551,22.7181653 93.4313578,21.5981699 93.7260132,20.5003435 C94.0206686,19.402979 94.4732232,18.4229253 95.084127,17.5601824 C95.694581,16.6979015 96.4858768,16.0032734 97.4571149,15.4767601 C98.4274533,14.9511705 99.5786336,14.687452 100.909756,14.687452 Z M117.32287,14.6873135 C118.173997,14.6873135 118.964393,14.7995439 119.695858,15.023543 C120.426423,15.2475421 121.070616,15.5948561 121.626638,16.0650232 C122.183109,16.5356522 122.624867,17.1180498 122.952362,17.812216 C123.279407,18.5068441 123.464298,19.3243253 123.508833,20.2651214 L121.446696,20.2651214 C121.424653,19.615755 121.293745,19.0499841 121.053972,18.5682706 C120.813749,18.087019 120.492102,17.6893629 120.088582,17.3753024 C119.684611,17.0621655 119.22126,16.8326242 118.697628,16.6866784 C118.173997,16.5411945 117.617525,16.4682216 117.028664,16.4682216 C116.570262,16.4682216 116.106461,16.5185636 115.637261,16.6192478 C115.168062,16.7203937 114.73755,16.8880466 114.344826,17.1235921 C113.952102,17.3586756 113.635404,17.6667321 113.395631,18.0477615 C113.155408,18.4287908 113.035747,18.8989579 113.035747,19.4587247 C113.035747,19.9288918 113.15001,20.3270098 113.378987,20.651693 C113.608413,20.9763762 113.89722,21.2511792 114.246758,21.4747164 C114.595396,21.6987155 114.977323,21.8839188 115.39209,22.0294028 C115.805957,22.1753486 116.188334,22.2926594 116.537422,22.3817972 L119.286489,23.0205409 C119.8758,23.1101406 120.459263,23.2727131 121.037327,23.5077967 C121.615391,23.7428802 122.128227,24.0509367 122.575833,24.4315042 C123.022539,24.8129954 123.388272,25.2831625 123.672131,25.8429293 C123.95554,26.4031579 124.097694,27.0640707 124.097694,27.8252057 C124.097694,28.7664636 123.890311,29.5673181 123.475994,30.227769 C123.061227,30.8886817 122.531747,31.4262795 121.888454,31.8405623 C121.24471,32.255307 120.519093,32.5513553 119.712053,32.7310164 C118.904562,32.9102156 118.108768,32.9998153 117.32287,32.9998153 C115.337208,32.9998153 113.728074,32.5185636 112.49547,31.5551367 C111.262416,30.5921716 110.558842,29.046347 110.384748,26.9181249 L112.446436,26.9181249 C112.533708,28.3521808 113.040695,29.4329186 113.968297,30.1608002 C114.89545,30.8886817 116.04663,31.2526225 117.420938,31.2526225 C117.922977,31.2526225 118.440761,31.1972 118.975639,31.0845077 C119.510068,30.9727391 120.006708,30.7824553 120.464661,30.5136564 C120.923064,30.2448575 121.299143,29.9030858 121.593798,29.4888029 C121.888454,29.0745201 122.036006,28.5646335 122.036006,27.9596051 C122.036006,27.4446382 121.93209,27.0137286 121.725156,26.6659527 C121.517323,26.3191005 121.239312,26.0276708 120.890224,25.7925872 C120.541136,25.5570418 120.142564,25.3612158 119.695858,25.2046474 C119.248252,25.048079 118.795697,24.9136795 118.337294,24.8014491 L115.686745,24.1964206 C115.009713,24.0172214 114.388462,23.8103109 113.820745,23.5747655 C113.253477,23.3396819 112.757286,23.048714 112.331723,22.7014 C111.906609,22.354086 111.573716,21.9282568 111.333943,21.4243743 C111.093271,20.9204919 110.973609,20.2988367 110.973609,19.5594088 C110.973609,18.6855815 111.164348,17.935531 111.546275,17.3083336 C111.927753,16.681598 112.424393,16.1772537 113.035747,15.7962243 C113.646201,15.4156568 114.328182,15.1357735 115.08124,14.9561123 C115.833848,14.7773749 116.581058,14.6873135 117.32287,14.6873135 Z M133.784748,14.6873135 C135.595417,14.6873135 137.128074,15.1805733 138.382722,16.1657074 C139.636919,17.1517651 140.384579,18.6412435 140.624801,20.6346044 L138.562664,20.6346044 C138.278805,19.3358716 137.755173,18.3165603 136.991768,17.5771325 C136.227914,16.8377046 135.159057,16.4682216 133.784748,16.4682216 C132.802714,16.4682216 131.940341,16.681598 131.198979,17.1065035 C130.457167,17.5323327 129.840865,18.0925613 129.349623,18.7867275 C128.85883,19.4813555 128.487699,20.2711255 128.23713,21.1555754 C127.98611,22.0409491 127.860601,22.9420258 127.860601,23.8601911 C127.860601,24.7792801 127.98611,25.6808186 128.23713,26.5652686 C128.487699,27.4501804 128.85883,28.2399504 129.349623,28.9341166 C129.840865,29.6287446 130.457167,30.1889732 131.198979,30.6143406 C131.940341,31.0401697 132.802714,31.2526225 133.784748,31.2526225 C134.416795,31.2526225 135.016902,31.1297694 135.58462,30.8831395 C136.151438,30.6369714 136.653477,30.2951996 137.089837,29.8582859 C137.526197,29.4213723 137.886081,28.9008631 138.16994,28.2958347 C138.453349,27.6908062 138.628343,27.0303553 138.693572,26.3135583 L140.755709,26.3135583 C140.471851,28.4191496 139.718792,30.0596542 138.497435,31.2359957 C137.275177,32.4118754 135.704282,32.9998153 133.784748,32.9998153 C132.496812,32.9998153 131.356878,32.7591894 130.364497,32.277476 C129.371216,31.7962243 128.536734,31.1408539 127.860601,30.3118263 C127.184018,29.4832607 126.671183,28.5142915 126.322545,27.4053806 C125.973007,26.2964697 125.798913,25.1150478 125.798913,23.8601911 C125.798913,22.6062581 125.973007,21.4243743 126.322545,20.3154634 C126.671183,19.2065526 127.184018,18.2380452 127.860601,17.4090177 C128.536734,16.580452 129.371216,15.9195393 130.364497,15.4267413 C131.356878,14.9339434 132.496812,14.6873135 133.784748,14.6873135 Z M58.3802346,9 L67.5442416,32.9914557 L65.1550589,32.9914557 L62.3074734,25.5320555 L51.6710893,25.5320555 L48.8563433,32.9914557 L46.5,32.9914557 L55.8929834,9 L58.3802346,9 Z M71.372872,9.00046185 L71.372872,32.9914557 L69.3111841,32.9914557 L69.3111841,9.00046185 L71.372872,9.00046185 Z M80.8559615,9.00009237 C81.1614134,9.00009237 81.4452722,9.01163871 81.7070881,9.0338077 C81.968904,9.05643853 82.2635594,9.089692 82.5906044,9.13449182 L82.5906044,10.9491153 C82.3067455,10.9043154 82.0449296,10.8650579 81.8056065,10.8313426 C81.5649338,10.7980891 81.3251608,10.7810005 81.0853878,10.7810005 C80.5176701,10.7810005 80.0817601,10.8706001 79.7758583,11.0497994 C79.4704064,11.2294605 79.2468282,11.4700863 79.1051237,11.7726005 C78.9629694,12.0746529 78.8810957,12.4275092 78.8599525,12.8307075 C78.8379096,13.2339058 78.827113,13.6708195 78.827113,14.1409866 L78.827113,14.6873596 L82.1654909,14.6873596 L82.1654909,16.4682678 L78.827113,16.4682678 L78.827113,32.9910862 L76.7654251,32.9910862 L76.7654251,16.4682678 L73.8850002,16.4682678 L73.8850002,14.6873596 L76.7654251,14.6873596 L76.7654251,14.0740178 C76.7654251,13.33459 76.8194078,12.6515082 76.9287227,12.0243108 C77.0375877,11.3975753 77.2449711,10.8595156 77.5508729,10.4115175 C77.8558749,9.96351933 78.2755901,9.61666715 78.8104684,9.36957538 C79.3448967,9.12340733 80.0268777,9.00009237 80.8559615,9.00009237 Z M150.663822,16.4684063 C149.681788,16.4684063 148.819865,16.6813209 148.078503,17.1066882 C147.336241,17.5325174 146.719939,18.092746 146.229147,18.7864504 C145.738354,19.4815403 145.367223,20.2708484 145.116654,21.1557602 C144.865185,22.040672 144.740125,22.9422105 144.740125,23.8603758 C144.740125,24.779003 144.865185,25.6805415 145.116654,26.5649915 C145.367223,27.4503652 145.738354,28.2401351 146.229147,28.9343013 C146.719939,29.6289294 147.336241,30.189158 148.078503,30.6145253 C148.819865,31.0398926 149.681788,31.2523454 150.663822,31.2523454 C151.645857,31.2523454 152.50733,31.0398926 153.249592,30.6145253 C153.990954,30.189158 154.607706,29.6289294 155.098498,28.9343013 C155.589291,28.2401351 155.960421,27.4503652 156.211441,26.5649915 C156.46201,25.6805415 156.58797,24.779003 156.58797,23.8603758 C156.58797,22.9422105 156.46201,22.040672 156.211441,21.1557602 C155.960421,20.2708484 155.589291,19.4815403 155.098498,18.7864504 C154.607706,18.092746 153.990954,17.5325174 153.249592,17.1066882 C152.50733,16.6813209 151.645857,16.4684063 150.663822,16.4684063 Z M57.0383156,11.2852524 L52.3584685,23.5830326 L61.5548651,23.5830326 L57.0383156,11.2852524 Z M100.909756,16.4683601 C100.058629,16.4683601 99.3060211,16.6420171 98.6514814,16.9888693 C97.9969416,17.3366452 97.4404703,17.795266 96.9825173,18.3665791 C96.5241146,18.9378922 96.1588319,19.598805 95.8862194,20.3493173 C95.6131571,21.0998297 95.4327651,21.8669688 95.3459429,22.6507346 L106.277432,22.6507346 C106.254939,21.844338 106.118633,21.0716566 105.868064,20.3322287 C105.617044,19.5928009 105.262558,18.9378922 104.804605,18.3665791 C104.346202,17.795266 103.789731,17.3366452 103.135191,16.9888693 C102.480652,16.6420171 101.73884,16.4683601 100.909756,16.4683601 Z M161.298857,12.5609387 C162.542707,12.5609387 163.5,13.5728603 163.5,14.8660509 C163.5,16.1624744 162.542707,17.1716249 161.298857,17.1716249 C160.054557,17.1716249 159.096364,16.1624744 159.096364,14.8660509 C159.096364,13.5728603 160.054557,12.5609387 161.298857,12.5609387 Z M161.298857,12.8907023 C160.2318,12.8907023 159.440954,13.7649915 159.440954,14.8660509 C159.440954,15.9694195 160.2318,16.8441705 161.298857,16.8441705 C162.365015,16.8441705 163.15856,15.9694195 163.15856,14.8660509 C163.15856,13.7649915 162.365015,12.8907023 161.298857,12.8907023 Z M161.47475,13.5340646 C162.049666,13.5340646 162.304734,13.7936264 162.304734,14.2711832 C162.304734,14.7441215 162.008279,14.9542649 161.666389,15.0147678 L162.422146,16.1994227 L162.057763,16.1994227 L161.339344,15.0147678 L160.814812,15.0147678 L160.814812,16.1994227 L160.499014,16.1994227 L160.499014,13.5340646 L161.47475,13.5340646 Z M161.387478,13.8130243 L160.814812,13.8130243 L160.814812,14.7376555 L161.22688,14.7376555 C161.613306,14.7376555 161.991185,14.7251855 161.991185,14.2711832 C161.991185,13.8998528 161.69428,13.8130243 161.387478,13.8130243 Z" id="logo-typeface" fill="#000000" opacity="0.6"></path>
                    <g id="5.-Branding/Logo/Logo-petals" stroke-width="1">
                        <g id="Group-72">
                            <path d="M20.5935,21.0108 L14.7855,15.0813 L14.574,14.8653 C11.2455,11.4588 5.82,11.4588 2.5065,14.8518 C-0.834,18.2433 -0.834,23.7573 2.5065,27.1503 C5.82,30.5538 11.2305,30.5538 14.559,27.1503 L20.5935,21.0108 Z" id="Fill-17" fill="#FFFFFF"></path>
                            <path d="M20.5935,21.00285 L20.5935,29.37735 L20.6055,29.68635 C20.6055,34.48785 16.7805,38.40435 12.066,38.40435 C7.3515,38.40435 3.5265,34.51185 3.5265,29.71035 C3.5265,24.90285 7.365,21.00285 12.066,21.00285 L20.5935,21.00285 Z" id="Fill-19" fill="#FFFFFF"></path>
                            <path d="M20.5935,21.00285 L20.5935,29.37735 L20.6055,29.68635 C20.6055,34.48785 16.7805,38.40435 12.066,38.40435 C7.3515,38.40435 3.5265,34.51185 3.5265,29.71035 C3.5265,24.90285 7.365,21.00285 12.066,21.00285 L20.5935,21.00285 Z" id="Fill-21" fill="#FFFFFF"></path>
                            <path d="M20.5935,21.00285 L20.5935,29.37735 L20.6055,29.68635 C20.6055,34.48785 16.7805,38.40435 12.066,38.40435 C7.3515,38.40435 3.5265,34.51185 3.5265,29.71035 C3.5265,29.17485 3.5835,28.65585 3.6705,28.15785 C6.9975,30.51885 11.5995,30.18435 14.559,27.15435 L20.5935,21.01035 L20.5935,21.00285 Z" id="Fill-23" fill="#FFFFFF"></path>
                            <path d="M12.06615,22.1004 C7.95765,22.1004 4.61865,25.5069 4.61865,29.7099 C4.61865,33.8979 7.95765,37.2969 12.06615,37.2969 C16.18815,37.2969 19.51665,33.8979 19.51665,29.7099 L19.51665,29.3799 L19.51665,22.1004 L12.08265,22.1004 L12.06615,22.1004 Z" id="Fill-25" fill="#92BD21"></path>
                            <g id="Group-29" transform="translate(12.000000, 21.000000)">
                                <mask id="mask-2" fill="white">
                                    <use xlink:href="#path-1"></use>
                                </mask>
                                <g id="Clip-28"></g>
                                <path d="M8.5935,0.00285 L14.397,5.92185 L14.6355,6.13785 C17.952,9.53985 17.967,15.06135 14.6355,18.45435 C11.2965,21.84885 5.8995,21.84885 2.559,18.45435 C-0.7695,15.06135 -0.7695,9.54585 2.559,6.14535 L8.5935,0.00285 Z" id="Fill-27" fill="#FFFFFF" mask="url(#mask-2)"></path>
                            </g>
                            <path d="M15.3372,27.9261 C12.4212,30.8916 12.4212,35.7111 15.3372,38.6691 C18.2382,41.6361 22.9587,41.6361 25.8732,38.6691 C28.7757,35.7111 28.7757,30.8916 25.8732,27.9261 L25.6302,27.7041 L20.5932,22.5606 L15.3372,27.9156 L15.3372,27.9261 Z" id="Fill-30" fill="#92BD21"></path>
                            <path d="M20.5935,21.00285 L28.818,21.00285 L29.1165,20.98785 C33.834,20.98785 37.6575,24.88635 37.6575,29.69385 C37.6575,34.50435 33.846,38.38785 29.1315,38.38785 C24.4155,38.38785 20.5935,34.49835 20.5935,29.69385 L20.5935,21.00285 Z" id="Fill-32" fill="#FFFFFF"></path>
                            <path d="M21.68205,29.69415 C21.68205,33.89115 25.00905,37.29165 29.13105,37.29165 C33.23505,37.29165 36.56355,33.89115 36.56355,29.69415 C36.56355,25.49115 33.23505,22.10115 29.13105,22.10115 L28.81905,22.10115 L21.68205,22.10115 L21.68205,29.67465 L21.68205,29.69415 Z" id="Fill-34" fill="#92BD21"></path>
                            <path d="M20.5935,21.00285 L26.397,15.07485 L26.622,14.85285 C29.952,11.45985 35.3595,11.44485 38.688,14.83635 C42.018,18.23835 42.018,23.74485 38.688,27.14535 C35.3595,30.54585 29.952,30.54585 26.622,27.14535 L20.5935,21.00285 Z" id="Fill-36" fill="#FFFFFF"></path>
                            <path d="M27.4008,26.3589 C30.2913,29.3334 35.0073,29.3334 37.9233,26.3589 C40.8408,23.3979 40.8408,18.5919 37.9233,15.6234 C35.0073,12.6579 30.2913,12.6579 27.4008,15.6234 L27.1623,15.8544 L22.1343,21.0024 L27.3738,26.3529 L27.4008,26.3589 Z" id="Fill-38" fill="#92BD21"></path>
                            <path d="M20.5935,21.00285 L20.5935,12.62085 L20.5935,12.30885 C20.5935,7.51035 24.4005,3.60435 29.1315,3.60435 C33.834,3.60435 37.6425,7.48485 37.6425,12.29535 C37.6425,17.10285 33.834,21.00285 29.1315,21.00285 L20.5935,21.00285 Z" id="Fill-40" fill="#FFFFFF"></path>
                            <path d="M29.13105,19.8978 C33.23505,19.8978 36.56205,16.4973 36.56205,12.2958 C36.56205,8.1108 33.23505,4.7028 29.13105,4.7028 C25.00905,4.7028 21.66705,8.1108 21.66705,12.2958 L21.68205,12.6213 L21.68205,19.8978 L29.08755,19.8978 L29.13105,19.8978 Z" id="Fill-42" fill="#F6A02B"></path>
                            <path d="M20.5935,21.00285 L14.7855,15.07485 L14.559,14.86635 C11.2305,11.45985 11.2305,5.94135 14.559,2.54985 C17.8725,-0.84915 23.283,-0.84915 26.622,2.54985 C29.952,5.94135 29.952,11.45985 26.622,14.85285 L20.5935,21.00285 Z" id="Fill-44" fill="#FFFFFF"></path>
                            <path d="M25.8582,14.1444 C28.7592,11.1774 28.7592,6.3624 25.8582,3.3984 C22.9437,0.4344 18.2397,0.4344 15.3237,3.3984 C12.4062,6.3624 12.4062,11.1774 15.3237,14.1444 L15.5367,14.3724 L20.5932,19.5069 L25.8417,14.1579 L25.8582,14.1444 Z" id="Fill-46" fill="#097EC2"></path>
                            <path d="M20.5935,21.0738 L12.3765,21.0738 L12.066,21.0828 C7.365,21.0828 3.5265,17.1828 3.5265,12.3768 C3.5265,7.5753 7.3515,3.6768 12.051,3.6768 C16.767,3.6768 20.5935,7.5753 20.5935,12.3798 L20.5935,21.0738 Z" id="Fill-48" fill="#FFFFFF"></path>
                            <path d="M19.51455,12.37995 C19.51455,8.18295 16.18755,4.78695 12.05205,4.78695 C7.94655,4.78695 4.60455,8.18295 4.60455,12.37395 C4.60455,16.56945 7.94655,19.97745 12.05205,19.97745 L12.37605,19.96845 L19.51455,19.96845 L19.51455,12.39645 L19.51455,12.37995 Z" id="Fill-50" fill="#097EC2"></path>
                            <path d="M20.5935,21.0738 L0,21.0828 C0,18.8583 0.8205,16.6278 2.5065,14.9238 C5.82,11.5308 11.2305,11.5308 14.559,14.9238 L20.5935,21.0738 Z" id="Fill-52" fill="#FFFFFF"></path>
                            <path d="M13.79385,15.7041 L19.06185,21.0741 L12.06585,21.0741 C8.28585,21.0741 5.06985,23.5866 3.95385,27.0786 C3.72585,26.8776 3.48435,26.6736 3.27435,26.4441 C0.35685,23.4771 0.35685,18.6786 3.27435,15.7041 C6.16035,12.7416 10.89135,12.7416 13.79385,15.7041" id="Fill-54" fill="#097EC2"></path>
                            <path d="M13.80705,15.71055 L17.97555,19.96455 L12.04605,19.98255 C8.63355,19.98255 5.75505,17.64405 4.88205,14.45205 C7.71255,12.83355 11.42055,13.22205 13.79355,15.70455 L13.80705,15.71055 Z" id="Fill-56" fill="#11559E"></path>
                            <path d="M19.5171,12.3951 L19.5111,18.4116 L15.3261,14.1441 C12.9156,11.6811 12.4911,7.9551 14.0781,5.0676 C17.2071,5.9616 19.5171,8.8941 19.5171,12.3786 L19.5171,12.3951 Z" id="Fill-58" fill="#11559E"></path>
                            <path d="M21.64995,18.42465 L21.64995,12.39015 C21.64995,8.91165 23.95695,5.97465 27.08895,5.07315 C28.67445,7.96815 28.37595,11.59815 25.88895,14.10765 L21.64995,18.42465 Z" id="Fill-60" fill="#11559E"></path>
                            <path d="M23.2053,19.9008 L27.3873,15.6258 C29.7963,13.1658 33.4533,12.7488 36.2868,14.3643 C35.3928,17.5548 32.6628,19.8468 29.3043,19.9038 L23.2053,19.9008 Z" id="Fill-62" fill="#FFE042"></path>
                            <path d="M23.20455,22.0962 L29.12355,22.0962 C32.53605,22.0962 35.41155,24.4197 36.29055,27.6177 C33.44205,29.2422 29.78655,28.8162 27.36705,26.3562 L23.20455,22.0962 Z" id="Fill-64" fill="#469F38"></path>
                            <path d="M21.6813,29.65395 L21.6813,23.64795 L25.8738,27.90945 C28.2843,30.37695 28.6923,34.11945 27.1068,37.00695 C23.9763,36.10995 21.6813,33.16395 21.6813,29.68245 L21.6813,29.65395 Z" id="Fill-66" fill="#469F38"></path>
                            <path d="M15.3471,27.91155 L19.5141,23.66205 L19.5231,29.69955 C19.5231,33.17955 17.2311,36.10455 14.1006,37.00605 C12.5151,34.11405 12.9396,30.37905 15.3471,27.92355 L15.3471,27.91155 Z" id="Fill-68" fill="#469F38"></path>
                            <path d="M12.10845,22.098 L18.00045,22.098 L13.82145,26.3655 C11.41695,28.8225 7.72995,29.247 4.90095,27.6315 C5.79045,24.4305 8.66895,22.098 12.08295,22.098 L12.10845,22.098 Z" id="Fill-70" fill="#469F38"></path>
                        </g>
                    </g>
                </g>
            </g>
        </g>
    </g>
</svg>
