<?xml version="1.0" encoding="UTF-8"?>
<svg width="20px" height="16px" viewBox="0 0 20 16" version="1.1" xmlns="http://www.w3.org/2000/svg" xmlns:xlink="http://www.w3.org/1999/xlink">
    <!-- Generator: Sketch 46.2 (44496) - http://www.bohemiancoding.com/sketch -->
    <title>System Icon Links</title>
    <desc>Created with Sketch.</desc>
    <defs></defs>
    <g id="Style" stroke="none" stroke-width="1" fill="none" fill-rule="evenodd">
        <g id="icons" transform="translate(-289.000000, -4488.000000)">
            <g id="File" transform="translate(140.000000, 4130.000000)">
                <g id="Icon-Links-Folder" transform="translate(120.000000, 328.000000)">
                    <g id="System-Icon-Links" transform="translate(28.000000, 30.000000)">
                        <path d="M1.70933755,0.543276016 L1,1.924926 L1,14.8121399 L1.69466158,15.5150573 L1.69466158,15.5150573 C1.88252616,15.7051546 2.13866895,15.8121399 2.40593302,15.8121399 L19.6045166,15.8121399 L20.3116234,15.1050331 L20.3116234,15.1050331 C20.4991598,14.9174967 20.6045166,14.6631428 20.6045166,14.3979263 L20.6045166,3.00924449 L19.9015261,2.24697884 L19.9015261,2.24697884 C19.7122055,2.04169503 19.4456711,1.924926 19.1664154,1.924926 L10.1733882,1.924926 L10.1733882,1.924926 C9.85108856,1.924926 9.548546,1.76958526 9.36072924,1.50766556 L8.57882415,0.417260445 L8.57882415,0.417260445 C8.39100739,0.155340737 8.08846483,-6.31724684e-16 7.76616517,0 L2.59894601,0 L2.59894601,-1.11022302e-16 C2.2240117,-4.21479881e-17 1.88057904,0.209731289 1.70933755,0.543276016 Z" id="Path-2-Copy" fill="#000000" opacity="0.54"></path>
                        <path d="M10,6 L7.6,6 L7.6,7.14 L10,7.14 C11.026,7.14 11.86,7.974 11.86,9 C11.86,10.026 11.026,10.86 10,10.86 L7.6,10.86 L7.6,12 L10,12 C11.656,12 13,10.656 13,9 C13,7.344 11.656,6 10,6 L10,6 Z M4.6,9.6 L9.4,9.6 L9.4,8.4 L4.6,8.4 L4.6,9.6 Z M2.14,9 C2.14,7.974 2.974,7.14 4,7.14 L6.4,7.14 L6.4,6 L4,6 C2.344,6 1,7.344 1,9 C1,10.656 2.344,12 4,12 L6.4,12 L6.4,10.86 L4,10.86 C2.974,10.86 2.14,10.026 2.14,9 L2.14,9 Z" id="Fill-2" fill="#FFFFFF" transform="translate(7.000000, 9.000000) rotate(-45.000000) translate(-7.000000, -9.000000) "></path>
                    </g>
                </g>
            </g>
        </g>
    </g>
</svg>