<svg width="24" height="24" viewBox="0 0 24 24" fill="none" xmlns="http://www.w3.org/2000/svg">
<path d="M19 8.99987L17.75 6.24987L15 4.99987L17.75 3.74987L19 0.999873L20.25 3.74987L23 4.99987L20.25 6.24987L19 8.99987ZM19 22.9999L17.75 20.2499L15 18.9999L17.75 17.7499L19 14.9999L20.25 17.7499L23 18.9999L20.25 20.2499L19 22.9999ZM8.99998 19.9999L6.49998 14.4999L0.999984 11.9999L6.49998 9.49987L8.99998 3.99987L11.5 9.49987L17 11.9999L11.5 14.4999L8.99998 19.9999ZM8.99998 15.1499L9.99998 12.9999L12.15 11.9999L9.99998 10.9999L8.99998 8.84987L7.99998 10.9999L5.84998 11.9999L7.99998 12.9999L8.99998 15.1499Z" fill="#212328" fill-opacity="0.7"/>
</svg>
