<?xml version="1.0" encoding="utf-8"?>
<!-- Generator: Adobe Illustrator 22.1.0, SVG Export Plug-In . SVG Version: 6.00 Build 0)  -->
<!DOCTYPE svg PUBLIC "-//W3C//DTD SVG 1.1//EN" "http://www.w3.org/Graphics/SVG/1.1/DTD/svg11.dtd">
<svg version="1.1" id="Layer_1" xmlns="http://www.w3.org/2000/svg" xmlns:xlink="http://www.w3.org/1999/xlink" x="0px" y="0px"
	 viewBox="80 0 912.8 328.2" style="enable-background:new 0 0 912.8 328.2;" xml:space="preserve" width="180" height="58">
<style type="text/css">
	.st0{fill:#7A7E82;}
	.st1{fill:#FFFFFF;}
	.st2{fill:#8CC03F;}
	.st3{fill:#F99F39;}
	.st4{fill:#0D81C5;}
	.st5{fill:#045FA6;}
	.st6{fill:#FDDF4F;}
	.st7{fill:#4AA749;}
	.st8{fill:none;stroke:#7A7E82;stroke-width:0.75;stroke-miterlimit:10;}
</style>
<g>
	<g>
		<g>
			<path class="st0" d="M273.5,293.6h5.3v-23.2c0-0.9-0.5-1.4-1.4-1.4h-4.3v-3.5h6c2.6,0,3.8,1.1,3.8,3.5v1.8c0,1.3-0.3,2.3-0.3,2.3
				h0.1c1.6-4.3,6.7-8.3,11.7-8.3c5.7,0,8.7,2.7,9.6,8h0.1c1.8-4.2,6.3-8,11.7-8c7.6,0,10.4,4.5,10.4,12.2v16.6h5.3v3.5h-9.6v-19
				c0-5.1-1.1-9.4-6.8-9.4c-6.4,0-10.6,6.8-10.6,13.3v11.6h5.3v3.5h-9.6v-19c0-4.8-0.6-9.4-6.7-9.4c-6.5,0-10.8,6.8-10.8,13.4v11.5
				h5.3v3.5h-14.9V293.6z"/>
			<path class="st0" d="M354.6,277.8h2.1v-1.3c0-5.9-3.2-8-7.6-8c-5.3,0-9.2,3.1-9.2,3.1l-2-3.2c0,0,4.3-3.6,11.4-3.6
				c7.7,0,11.6,4.1,11.6,11.9v15.6c0,0.9,0.5,1.4,1.4,1.4h3.5v3.5h-5.1c-2.7,0-3.8-1.2-3.8-3.5v-0.6c0-1.5,0.2-2.4,0.2-2.4h-0.1
				c0,0-2.7,7.2-10.8,7.2c-5.1,0-10.5-3-10.5-9.4C335.6,278.2,349.2,277.8,354.6,277.8z M346.7,294.4c6.3,0,9.9-6.3,9.9-11.9V281
				h-1.8c-2.6,0-14.9-0.3-14.9,7C340,291.3,342.3,294.4,346.7,294.4z"/>
			<path class="st0" d="M369.3,293.6h5.3v-37.1H369V253h9.9v24.9h5l7.5-8.8h-4.5v-3.5h13.6v3.5H396l-8.7,10v0.1
				c0.1,0,0.9,0.4,2.2,2.5l6.3,10.5c0.6,1.1,1.1,1.3,2.9,1.3h2.1v3.5h-3.5c-3.1,0-4-0.6-5.5-3.1l-6.7-11.4c-0.8-1.1-1.6-1.3-3.1-1.3
				h-3.1v12.3h5v3.5h-14.6V293.6z"/>
			<path class="st0" d="M420.2,264.8c8.7,0,13.2,6.7,13.2,14.6c0,0.8-0.2,2-0.2,2H409c0.2,8.1,5.7,12.7,12.2,12.7
				c5.8,0,9.6-3.8,9.6-3.8l1.9,3.2c0,0-4.5,4.4-11.7,4.4c-9.4,0-16.5-6.8-16.5-16.5C404.6,271,411.6,264.8,420.2,264.8z M429,278.2
				c-0.3-6.7-4.3-9.9-8.9-9.9c-5.3,0-9.9,3.5-10.9,9.9H429z"/>
			<path class="st0" d="M457.7,256.5H452V253h9.9v15.6c0,1.5-0.2,2.6-0.2,2.6h0.1c0,0,2.8-6.4,10.8-6.4c8.5,0,13.7,6.8,13.7,16.6
				c0,10-6,16.5-14.2,16.5c-7.6,0-10.4-6.5-10.4-6.5h-0.1c0,0,0.2,1.1,0.2,2.6v3.1h-4.1V256.5z M471.8,294.1
				c5.6,0,10.2-4.6,10.2-12.7c0-7.7-4.1-12.7-10-12.7c-5.3,0-10.2,3.8-10.2,12.7C461.8,287.8,465.1,294.1,471.8,294.1z"/>
			<path class="st0" d="M496.1,269.1h-5.7v-3.5h9.9v19c0,5,0.8,9.4,6.9,9.4c7.1,0,11.6-6.5,11.6-13.4v-11.5h-5.6v-3.5h9.9v26.7
				c0,0.9,0.5,1.4,1.4,1.4h3.6v3.5h-5.3c-2.6,0-3.8-1.1-3.8-3.5v-1.6c0-1.3,0.1-2.3,0.1-2.3H519c-0.8,2.4-4.7,8.1-12.5,8.1
				c-7.3,0-10.4-4-10.4-12.2V269.1z"/>
			<path class="st0" d="M533.1,287.3h3.9v2.3c0,3.2,4.6,4.6,8.2,4.6c4,0,7.4-1.8,7.4-5c0-3.6-4-4.9-8.5-6.6
				c-4.8-1.8-9.8-3.9-9.8-9.4c0-5.8,5.7-8.4,10.9-8.4c4.3,0,10.5,1.8,10.5,6.2v3.6h-3.9v-2.3c0-2.3-3.1-3.8-6.5-3.8
				c-3.5,0-6.7,1.5-6.7,4.6c0,3.5,3.8,4.9,8,6.4c4.9,1.8,10.3,3.8,10.3,9.5c0,5.5-4.9,8.9-11.9,8.9c-5.8,0-11.9-2.6-11.9-7.5V287.3z
				"/>
			<path class="st0" d="M562.7,293.6h5.3v-24.5h-5.7v-3.5h9.9v28.1h5.3v3.5h-14.9V293.6z M567.8,253h4.8v5.3h-4.8V253z"/>
			<path class="st0" d="M582.4,293.6h5.3v-23.2c0-0.9-0.5-1.4-1.4-1.4h-4.3v-3.5h6c2.6,0,3.8,1.1,3.8,3.5v1.8c0,1.3-0.2,2.3-0.2,2.3
				h0.1c0.9-2.4,5-8.3,12.9-8.3c7.8,0,10.5,4.5,10.5,12.2v16.6h5.3v3.5h-9.6v-19c0-5-0.8-9.4-6.9-9.4c-7,0-12,6.2-12,13.1v11.7h5.3
				v3.5h-14.9V293.6z"/>
			<path class="st0" d="M640.3,264.8c8.7,0,13.2,6.7,13.2,14.6c0,0.8-0.2,2-0.2,2h-24.2c0.2,8.1,5.7,12.7,12.2,12.7
				c5.8,0,9.6-3.8,9.6-3.8l1.9,3.2c0,0-4.5,4.4-11.7,4.4c-9.4,0-16.5-6.8-16.5-16.5C624.8,271,631.8,264.8,640.3,264.8z
				 M649.1,278.2c-0.3-6.7-4.3-9.9-8.9-9.9c-5.3,0-9.9,3.5-10.9,9.9H649.1z"/>
			<path class="st0" d="M659.3,287.3h3.9v2.3c0,3.2,4.6,4.6,8.2,4.6c4,0,7.4-1.8,7.4-5c0-3.6-4-4.9-8.5-6.6
				c-4.8-1.8-9.8-3.9-9.8-9.4c0-5.8,5.6-8.4,10.9-8.4c4.3,0,10.5,1.8,10.5,6.2v3.6H678v-2.3c0-2.3-3.1-3.8-6.5-3.8
				c-3.5,0-6.7,1.5-6.7,4.6c0,3.5,3.8,4.9,8,6.4c4.9,1.8,10.3,3.8,10.3,9.5c0,5.5-4.9,8.9-11.9,8.9c-5.8,0-11.9-2.6-11.9-7.5V287.3z
				"/>
			<path class="st0" d="M688.8,287.3h3.9v2.3c0,3.2,4.6,4.6,8.2,4.6c4,0,7.4-1.8,7.4-5c0-3.6-4-4.9-8.5-6.6
				c-4.8-1.8-9.8-3.9-9.8-9.4c0-5.8,5.7-8.4,10.9-8.4c4.3,0,10.5,1.8,10.5,6.2v3.6h-3.9v-2.3c0-2.3-3.1-3.8-6.5-3.8
				c-3.5,0-6.7,1.5-6.7,4.6c0,3.5,3.8,4.9,8,6.4c4.9,1.8,10.3,3.8,10.3,9.5c0,5.5-4.9,8.9-11.9,8.9c-5.8,0-11.9-2.6-11.9-7.5V287.3z
				"/>
			<path class="st0" d="M793.5,264.8c9.2,0,16.7,7,16.7,16.4c0,9.5-7.5,16.7-16.7,16.7c-9.2,0-16.6-7.2-16.6-16.7
				C776.9,271.8,784.3,264.8,793.5,264.8z M793.5,294.1c6.8,0,12.3-5.5,12.3-12.9c0-7.2-5.5-12.6-12.3-12.6
				c-6.7,0-12.2,5.4-12.2,12.6C781.3,288.5,786.8,294.1,793.5,294.1z"/>
			<path class="st0" d="M813.3,265.6h13.1v3.5h-4.7l6.6,21.2c0.4,1.1,0.5,2.4,0.5,2.4h0.1c0,0,0.2-1.3,0.5-2.4l7.9-24.6h4.2
				l7.9,24.6c0.3,1.1,0.5,2.4,0.5,2.4h0.1c0,0,0.1-1.3,0.4-2.4l6.7-21.2h-4.7v-3.5h13.1v3.5h-4.1l-9,28.1h-4.6l-7.8-23.7
				c-0.4-1.1-0.6-2.5-0.6-2.5h-0.2c0,0-0.2,1.4-0.6,2.5l-7.8,23.7h-4.6l-9-28.1h-4V265.6z"/>
			<path class="st0" d="M752.7,255.7c0.9,0,1.7,0,2.3,0.1v-3.6c-0.7,0-1.5-0.1-2.3-0.1c-6.1,0-13.4,2.6-13.4,12.4v1.1h-5.6v3.5h5.6
				v24.5H734v3.5h15.9v-3.5h-6.3v-24.5h8v-3.5h-8v-1.1C743.7,257.6,748.4,255.7,752.7,255.7z"/>
			<path class="st0" d="M772.4,294.1c-3.3,0-3.8-2.2-3.8-4.8v-31h0v-2.3h0v-0.5h0v-3.4h-9.9v3.4h5.7v2.8v1.4v29.9
				c0,6.2,3,8.2,7.2,8.2c1.2,0,2.4-0.2,2.4-0.2V294C773.9,294,773.2,294.1,772.4,294.1z"/>
		</g>
		<g>
			<path class="st0" d="M873,265.5v0.7h-1.3v3.3h-0.8v-3.3h-1.3v-0.7H873z M877.3,269.5l-0.1-2.3c0-0.3,0-0.7,0-1.1h0
				c-0.1,0.4-0.2,0.8-0.3,1.2l-0.7,2.2h-0.8l-0.7-2.3c-0.1-0.3-0.2-0.8-0.3-1.1h0c0,0.4,0,0.7,0,1.1l-0.1,2.3h-0.8l0.3-4h1.2l0.7,2
				c0.1,0.3,0.2,0.6,0.3,1h0c0.1-0.4,0.2-0.7,0.3-1l0.7-2h1.1l0.3,4H877.3z"/>
		</g>
	</g>
	<g>
		<g>
			<path class="st0" d="M272.8,214.5h13.9l16.4-42.6h61.8l16.5,42.6h13.9L342,77.4h-14.5L272.8,214.5L272.8,214.5z M334.2,90.5
				l26.2,70.3H307L334.2,90.5L334.2,90.5z"/>
			<polygon class="st0" points="399.9,214.5 411.9,214.5 411.9,77.4 399.9,77.4 399.9,214.5 			"/>
			<path class="st0" d="M463.2,115.4h-19.4v-8.6c0-2.7,0.1-5.2,0.2-7.5c0.1-2.3,0.6-4.3,1.4-6.1c0.8-1.7,2.1-3.1,3.9-4.1
				c1.8-1,4.3-1.5,7.6-1.5c1.4,0,2.8,0.1,4.2,0.3c1.4,0.2,2.9,0.4,4.6,0.7V78.2c-1.9-0.3-3.6-0.5-5.1-0.6c-1.5-0.1-3.2-0.2-4.9-0.2
				c-4.8,0-8.8,0.7-11.9,2.1c-3.1,1.4-5.6,3.4-7.3,5.9c-1.8,2.6-3,5.6-3.6,9.2c-0.6,3.6-1,7.5-1,11.7v9h-16.7v10.2h16.7v88.9h12
				v-88.9h19.4V115.4L463.2,115.4z"/>
			<path class="st0" d="M467,214.5h12v-52c0-5,0.9-9.8,2.7-14.2c1.8-4.4,4.3-8.2,7.5-11.3c3.2-3.1,7.1-5.6,11.5-7.3
				c4.4-1.7,9.4-2.4,14.8-2.2v-12.1c-8.9-0.4-16.5,1.4-22.9,5.3c-6.4,3.9-11.1,9.9-14.2,18H478v-23.2h-11V214.5L467,214.5z"/>
			<path class="st0" d="M596.7,168.2c0.3-6.5-0.4-13-1.9-19.4c-1.5-6.4-4-12-7.5-16.9c-3.5-4.9-8-8.9-13.6-11.9
				c-5.6-3-12.3-4.5-20.2-4.5c-7.9,0-14.6,1.4-20.2,4.3c-5.6,2.8-10.1,6.6-13.7,11.3c-3.5,4.7-6.2,9.9-7.9,15.9
				c-1.7,5.9-2.6,12-2.6,18.1c0,6.7,0.9,13,2.6,19c1.7,6,4.4,11.2,7.9,15.8c3.5,4.5,8.1,8.1,13.7,10.8c5.6,2.7,12.3,4,20.2,4
				c12.4,0,22-3.1,28.8-9.3c6.8-6.2,11.4-14.9,14-26.2h-12c-1.9,7.6-5.3,13.7-10.3,18.3c-4.9,4.7-11.8,7-20.5,7
				c-5.7,0-10.6-1.1-14.7-3.4c-4.1-2.3-7.5-5.1-10-8.5c-2.5-3.4-4.4-7.3-5.7-11.6c-1.3-4.3-1.9-8.5-1.9-12.6H596.7L596.7,168.2z
				 M521.2,158.1c0.5-4.1,1.5-8.1,3.1-12.1c1.6-4,3.7-7.4,6.4-10.4c2.7-3,5.9-5.4,9.7-7.2c3.8-1.8,8.2-2.7,13.1-2.7
				c4.8,0,9.1,0.9,12.9,2.7c3.8,1.8,7,4.2,9.7,7.2c2.7,3,4.7,6.4,6.2,10.3c1.5,3.9,2.3,7.9,2.4,12.2H521.2L521.2,158.1z"/>
			<path class="st0" d="M676.1,144.4c-0.3-5.4-1.3-10-3.2-14c-1.9-4-4.5-7.3-7.7-10c-3.2-2.7-7-4.7-11.2-6
				c-4.2-1.3-8.8-1.9-13.8-1.9c-4.3,0-8.7,0.5-13,1.5c-4.4,1-8.3,2.6-11.9,4.8c-3.6,2.2-6.4,5.1-8.7,8.6c-2.2,3.6-3.3,7.9-3.3,12.9
				c0,4.2,0.7,7.8,2.1,10.7c1.4,2.9,3.3,5.3,5.8,7.3c2.5,2,5.4,3.6,8.7,5c3.3,1.3,6.9,2.5,10.8,3.5l15.4,3.5
				c2.7,0.6,5.3,1.4,7.9,2.3c2.6,0.9,4.9,2,6.9,3.4c2,1.3,3.6,3,4.8,5.1c1.2,2,1.8,4.5,1.8,7.3c0,3.5-0.9,6.4-2.6,8.7
				c-1.7,2.4-3.9,4.3-6.6,5.9c-2.7,1.5-5.6,2.6-8.8,3.3c-3.2,0.7-6.2,1-8.9,1c-8,0-14.7-2.1-20.1-6.2c-5.4-4.2-8.3-10.3-8.9-18.5
				h-12c1,12.2,5.1,21,12.3,26.6c7.2,5.6,16.5,8.3,28.1,8.3c4.6,0,9.2-0.5,13.9-1.6c4.7-1.1,8.9-2.8,12.6-5.2
				c3.7-2.4,6.8-5.4,9.2-9.2c2.4-3.8,3.6-8.3,3.6-13.7c0-4.4-0.8-8.1-2.5-11.3c-1.6-3.2-3.8-5.9-6.4-8.1c-2.6-2.2-5.6-3.9-8.9-5.3
				c-3.4-1.3-6.8-2.3-10.2-2.8l-16-3.7c-2-0.5-4.2-1.2-6.7-2c-2.4-0.8-4.6-1.9-6.7-3.2c-2-1.3-3.7-2.8-5-4.7c-1.3-1.9-2-4.1-2-6.8
				c0-3.2,0.7-5.9,2.1-8.1c1.4-2.2,3.2-3.9,5.5-5.3c2.3-1.3,4.8-2.3,7.5-2.9c2.7-0.6,5.4-0.9,8.1-0.9c3.4,0,6.7,0.4,9.7,1.2
				c3,0.8,5.7,2.1,8.1,3.9c2.3,1.8,4.2,4.1,5.6,6.8c1.4,2.7,2.1,6,2.3,9.7H676.1L676.1,144.4z"/>
			<path class="st0" d="M766.6,149.4c-1.4-11.4-5.7-19.9-13-25.5c-7.3-5.6-16.2-8.4-26.7-8.4c-7.5,0-14.1,1.3-19.9,4
				c-5.8,2.7-10.6,6.2-14.6,10.7c-3.9,4.5-6.9,9.7-8.9,15.8c-2,6-3,12.4-3,19.1c0,6.8,1,13.1,3,19.1c2,6,5,11.2,8.9,15.7
				c3.9,4.5,8.8,8,14.6,10.7c5.8,2.7,12.4,4,19.9,4c11,0,20.1-3.4,27.3-10.2c7.2-6.8,11.6-16.2,13.2-28.2h-12
				c-0.4,4.1-1.4,7.9-3,11.3c-1.7,3.5-3.7,6.4-6.3,8.9c-2.5,2.5-5.5,4.5-8.8,5.9c-3.3,1.4-6.8,2.1-10.5,2.1c-5.7,0-10.7-1.1-15-3.4
				c-4.3-2.3-7.9-5.3-10.7-9c-2.9-3.7-5-7.9-6.5-12.6c-1.5-4.7-2.2-9.5-2.2-14.4c0-4.9,0.7-9.7,2.2-14.4c1.5-4.7,3.6-8.9,6.5-12.6
				c2.9-3.7,6.4-6.7,10.7-8.9c4.3-2.3,9.3-3.4,15-3.4c7.9,0,14,2.1,18.5,6.3c4.5,4.2,7.6,10.1,9.2,17.5H766.6L766.6,149.4z"/>
			<path class="st0" d="M818,115.4c-7.5,0-14.1,1.3-19.9,4c-5.8,2.7-10.6,6.2-14.5,10.7c-3.9,4.5-6.9,9.7-8.9,15.8
				c-2,6-3,12.4-3,19.1c0,6.8,1,13.1,3,19.1c2,6,5,11.2,8.9,15.7c3.9,4.5,8.8,8,14.5,10.7c5.8,2.7,12.4,4,19.9,4
				c7.5,0,14.1-1.3,19.9-4c5.8-2.7,10.6-6.2,14.6-10.7c3.9-4.5,6.9-9.7,8.9-15.7c2-6,3-12.4,3-19.1c0-6.7-1-13-3-19.1
				c-2-6-5-11.3-8.9-15.8c-3.9-4.5-8.8-8-14.6-10.7C832.1,116.8,825.5,115.4,818,115.4L818,115.4z M818,125.6c5.7,0,10.7,1.1,15,3.4
				c4.3,2.3,7.9,5.2,10.8,8.9c2.8,3.7,5,7.9,6.5,12.6c1.5,4.7,2.2,9.5,2.2,14.4c0,4.9-0.7,9.7-2.2,14.4c-1.5,4.7-3.6,8.9-6.5,12.6
				c-2.9,3.7-6.4,6.7-10.8,9c-4.3,2.3-9.3,3.4-15,3.4c-5.7,0-10.7-1.1-15-3.4c-4.3-2.3-7.9-5.3-10.8-9c-2.8-3.7-5-7.9-6.5-12.6
				c-1.5-4.7-2.2-9.5-2.2-14.4c0-4.9,0.7-9.7,2.2-14.4c1.5-4.7,3.6-8.9,6.5-12.6c2.9-3.7,6.4-6.7,10.8-8.9
				C807.3,126.7,812.3,125.6,818,125.6L818,125.6z"/>
			<g>
				<path class="st0" d="M881.2,122.1c0,5.4-4.1,9.6-9.4,9.6c-5.3,0-9.4-4.2-9.4-9.6c0-5.4,4.1-9.6,9.4-9.6
					C877.1,112.5,881.2,116.7,881.2,122.1z M863.9,122.1c0,4.6,3.4,8.2,7.9,8.2c4.5,0,7.9-3.6,7.9-8.2c0-4.6-3.4-8.2-7.9-8.2
					C867.3,113.9,863.9,117.5,863.9,122.1z M869.8,127.6h-1.3v-11.1h4.2c2.4,0,3.5,1.1,3.5,3.1c0,2-1.3,2.8-2.7,3.1l3.2,4.9h-1.6
					l-3.1-4.9h-2.2V127.6z M871.5,121.5c1.6,0,3.3-0.1,3.3-1.9c0-1.5-1.3-1.9-2.6-1.9h-2.4v3.8H871.5z"/>
			</g>
			<g>
				<g>
					<path class="st1" d="M139.5,142.6l-32.2-32.8l-1.2-1.2c-18.4-18.9-48.5-18.9-66.8-0.1c-18.5,18.8-18.5,49.3,0,68.1
						c18.3,18.8,48.3,18.8,66.7,0L139.5,142.6z"/>
				</g>
				<path class="st1" d="M139.5,142.6V189l0.1,1.7c0,26.6-21.2,48.3-47.3,48.3c-26.1,0-47.3-21.5-47.3-48.1
					c0-26.6,21.2-48.2,47.3-48.2H139.5z"/>
				<path class="st1" d="M139.5,142.6V189l0.1,1.7c0,26.6-21.2,48.3-47.3,48.3c-26.1,0-47.3-21.5-47.3-48.1
					c0-26.6,21.2-48.2,47.3-48.2H139.5z"/>
				<path class="st1" d="M139.5,142.6V189l0.1,1.7c0,26.6-21.2,48.3-47.3,48.3c-26.1,0-47.3-21.5-47.3-48.1c0-3,0.3-5.8,0.8-8.6
					c18.4,13.1,43.9,11.2,60.3-5.6L139.5,142.6L139.5,142.6z"/>
				<path class="st2" d="M92.3,148.7c-22.7,0-41.2,18.9-41.2,42.1c0,23.2,18.5,42,41.2,42c22.8,0,41.2-18.8,41.2-42V189v-40.3H92.3
					L92.3,148.7z"/>
				<path class="st1" d="M139.5,142.6l32.1,32.8l1.3,1.2c18.4,18.8,18.4,49.4,0,68.2c-18.5,18.8-48.4,18.8-66.9,0
					c-18.4-18.8-18.4-49.3,0-68.1L139.5,142.6z"/>
				<path class="st2" d="M110.4,180.9c-16.1,16.4-16.1,43.1,0,59.5c16.1,16.4,42.2,16.4,58.3,0c16.1-16.4,16.1-43.1,0-59.5l-1.3-1.2
					l-27.9-28.5L110.4,180.9L110.4,180.9z"/>
				<path class="st1" d="M139.5,142.6H185l1.7-0.1c26.1,0,47.3,21.6,47.3,48.2c0,26.6-21.1,48.1-47.2,48.1
					c-26.1,0-47.3-21.5-47.3-48.1V142.6z"/>
				<path class="st2" d="M145.5,190.7c0,23.2,18.4,42.1,41.2,42.1c22.7,0,41.1-18.8,41.1-42.1c0-23.3-18.4-42-41.1-42H185h-39.5
					v41.9V190.7z"/>
				<path class="st1" d="M139.5,142.6l32.1-32.8l1.2-1.2c18.4-18.8,48.4-18.9,66.8-0.1c18.4,18.8,18.4,49.3,0,68.1
					c-18.4,18.8-48.4,18.8-66.8,0L139.5,142.6z"/>
				<path class="st2" d="M177.1,172.2c16,16.5,42.1,16.5,58.2,0c16.2-16.4,16.2-43,0-59.4c-16.1-16.4-42.2-16.4-58.2,0l-1.3,1.3
					L148,142.6l29,29.6L177.1,172.2z"/>
				<path class="st1" d="M139.5,142.6V96.2v-1.7c0-26.6,21.1-48.2,47.3-48.2c26,0,47.1,21.5,47.1,48.1c0,26.6-21.1,48.2-47.1,48.2
					H139.5z"/>
				<g>
					<path class="st3" d="M186.7,136.5c22.7,0,41.1-18.8,41.1-42.1c0-23.2-18.4-42-41.1-42c-22.8,0-41.3,18.9-41.3,42l0.1,1.8v40.3
						h41H186.7z"/>
					<path class="st1" d="M139.5,142.6l-32.2-32.8l-1.3-1.2c-18.4-18.9-18.4-49.4,0-68.2c18.3-18.8,48.3-18.8,66.8,0
						c18.4,18.8,18.4,49.3,0,68.1L139.5,142.6z"/>
				</g>
				<path class="st4" d="M168.6,104.6c16.1-16.4,16.1-43.1,0-59.5c-16.1-16.4-42.2-16.4-58.3,0c-16.1,16.4-16.1,43.1,0,59.5l1.2,1.3
					l28,28.4L168.6,104.6L168.6,104.6z"/>
				<path class="st1" d="M139.5,143H94l-1.7,0c-26,0-47.3-21.6-47.3-48.2c0-26.6,21.2-48.2,47.2-48.2c26.1,0,47.3,21.6,47.3,48.2
					V143z"/>
				<path class="st4" d="M133.5,94.9c0-23.2-18.4-42-41.3-42c-22.7,0-41.2,18.8-41.2,42c0,23.2,18.5,42.1,41.2,42.1l1.8,0h39.5V94.9
					L133.5,94.9z"/>
				<path class="st1" d="M139.5,143l-114,0c0-12.3,4.5-24.7,13.9-34.1c18.3-18.8,48.3-18.8,66.7,0L139.5,143z"/>
				<path class="st4" d="M101.8,113.3L131,143H92.3c-20.9,0-38.7,13.9-44.9,33.2c-1.3-1.1-2.6-2.2-3.8-3.5
					c-16.2-16.4-16.2-43,0-59.5C59.6,96.9,85.8,96.9,101.8,113.3"/>
				<path class="st5" d="M101.9,113.3l23.1,23.5l-32.8,0.1c-18.9,0-34.8-12.9-39.7-30.6C68.2,97.4,88.7,99.5,101.9,113.3
					L101.9,113.3z"/>
				<path class="st5" d="M133.5,94.9l0,33.3l-23.2-23.6C97,91,94.6,70.4,103.4,54.4C120.7,59.3,133.5,75.6,133.5,94.9L133.5,94.9z"
					/>
				<path class="st5" d="M145.3,128.3V94.9c0-19.3,12.8-35.5,30.1-40.5c8.8,16,7.1,36.1-6.6,50L145.3,128.3z"/>
				<path class="st6" d="M153.9,136.5l23.1-23.7c13.3-13.6,33.6-15.9,49.3-7c-5,17.7-20.1,30.3-38.7,30.7L153.9,136.5z"/>
				<path class="st7" d="M153.9,148.7h32.8c18.9,0,34.8,12.9,39.7,30.6c-15.8,9-36,6.6-49.4-7L153.9,148.7z"/>
				<path class="st7" d="M145.5,190.5v-33.2l23.2,23.6c13.3,13.7,15.6,34.4,6.8,50.4c-17.3-5-30-21.3-30-40.5V190.5z"/>
				<path class="st7" d="M110.4,180.8l23.1-23.5l0.1,33.4c0,19.3-12.7,35.5-30,40.4C94.7,215.2,97.1,194.5,110.4,180.8L110.4,180.8z
					"/>
				<path class="st7" d="M92.5,148.7h32.6L102,172.3c-13.3,13.6-33.7,16-49.4,7c4.9-17.7,20.9-30.6,39.8-30.6H92.5z"/>
			</g>
		</g>
		<line class="st8" x1="864.6" y1="235" x2="272.8" y2="235"/>
	</g>
</g>
</svg>
