<svg width="32" height="32" viewBox="0 0 32 32" fill="none" xmlns="http://www.w3.org/2000/svg">
<path fill-rule="evenodd" clip-rule="evenodd" d="M8 11V8C8 6.89543 8.89543 6 10 6H17.1716C17.702 6 18.2107 6.21071 18.5858 6.58579L23.4142 11.4142C23.7893 11.7893 24 12.298 24 12.8284V24C24 25.1046 23.1046 26 22 26H10C8.89543 26 8 25.1046 8 24V21H6C5.44772 21 5 20.5523 5 20V12C5 11.4477 5.44772 11 6 11H8ZM10 8L17 8V13H22V24H10V21H14C14.5523 21 15 20.5523 15 20V12C15 11.4477 14.5523 11 14 11H10V8Z" fill="#CA401B"/>
<path d="M8.3125 18H9.49716V16.7045H10.1534C11.1484 16.7045 11.8153 16.1186 11.8153 15.179C11.8153 14.25 11.1655 13.6364 10.196 13.6364H8.3125V18ZM9.49716 15.7841V14.5824H9.91477C10.3303 14.5824 10.5795 14.804 10.5795 15.179C10.5795 15.5518 10.3303 15.7841 9.91477 15.7841H9.49716Z" fill="white"/>
</svg>
