<svg width="32" height="32" viewBox="0 0 32 32" fill="none" xmlns="http://www.w3.org/2000/svg">
<path fill-rule="evenodd" clip-rule="evenodd" d="M8 11V8C8 6.89543 8.89543 6 10 6H17.1716C17.702 6 18.2107 6.21071 18.5858 6.58579L23.4142 11.4142C23.7893 11.7893 24 12.298 24 12.8284V24C24 25.1046 23.1046 26 22 26H10C8.89543 26 8 25.1046 8 24V21H6C5.44772 21 5 20.5523 5 20V12C5 11.4477 5.44772 11 6 11H8ZM10 8L17 8V13H22V24H10V21H14C14.5523 21 15 20.5523 15 20V12C15 11.4477 14.5523 11 14 11H10V8Z" fill="#2A7DE1"/>
<path d="M8.10798 18H9.2415L9.98298 15.5625H10.0171L10.7585 18H11.8921L13.179 13.6364H11.858L11.2614 16.3295H11.2273L10.5199 13.6364H9.48014L8.77275 16.321H8.73866L8.14207 13.6364H6.82104L8.10798 18Z" fill="white"/>
</svg>
