<svg width="32" height="32" viewBox="0 0 32 32" fill="none" xmlns="http://www.w3.org/2000/svg">
<path fill-rule="evenodd" clip-rule="evenodd" d="M8 11V8C8 6.89543 8.89543 6 10 6H17.1716C17.702 6 18.2107 6.21071 18.5858 6.58579L23.4142 11.4142C23.7893 11.7893 24 12.298 24 12.8284V24C24 25.1046 23.1046 26 22 26H10C8.89543 26 8 25.1046 8 24V21H6C5.44772 21 5 20.5523 5 20V12C5 11.4477 5.44772 11 6 11H8ZM10 8L17 8V13H22V24H10V21H14C14.5523 21 15 20.5523 15 20V12C15 11.4477 14.5523 11 14 11H10V8Z" fill="#00953B"/>
<path d="M9.26303 13.6364H7.93348L9.22894 15.8182L7.89087 18H9.23746L9.97894 16.7045H10.013L10.7545 18H12.1096L10.7545 15.8182L12.0585 13.6364H10.7375L10.013 14.9062H9.97894L9.26303 13.6364Z" fill="white"/>
</svg>
