<?xml version="1.0" encoding="utf-8"?>
<!-- Generator: Adobe Illustrator 24.3.0, SVG Export Plug-In . SVG Version: 6.00 Build 0)  -->
<svg version="1.1" id="Layer_1" xmlns="http://www.w3.org/2000/svg" xmlns:xlink="http://www.w3.org/1999/xlink" x="0px" y="0px"
	 viewBox="0 0 24 24" style="enable-background:new 0 0 24 24;" xml:space="preserve">
<style type="text/css">
	.st0{opacity:1;}
	.st1{fill:none;}
	.st2{fill-rule:evenodd;clip-rule:evenodd;}
</style>
<g id="Asset-Artboard-Page" class="st0">
	<g id="ic-archive-sync-1.-Icons_1.-system_ic-process">
		<path id="Bounding-box" class="st1" d="M0,0h24v24H0V0z"/>
		<path id="Combined-Shape" class="st2" d="M5.5,15.4c1.4,0,2.5,1.1,2.5,2.5s-1.1,2.5-2.5,2.5S3,19.3,3,17.9S4.1,15.4,5.5,15.4z
			 M18.5,15.4l2.5,5h-5L18.5,15.4z M6,13.1v1H5v-1H6z M19,13.6v1h-1v-1H19z M6,11.1v1H5v-1H6z M19,11.6v1h-1v-1H19z M6,9.1v1H5v-1H6
			z M19,9.6v1h-1v-1H19z M8,3v5H3V3H8z M10.3,5v1h-1V5H10.3z M12.3,5v1h-1V5H12.3z M14.3,5v1h-1V5H14.3z M18.5,8.7l-3.2-3.2l3.2-3.2
			l3.2,3.2L18.5,8.7z"/>
	</g>
</g>
</svg>
