<svg width="32" height="32" viewBox="0 0 32 32" fill="none" xmlns="http://www.w3.org/2000/svg">
<path fill-rule="evenodd" clip-rule="evenodd" d="M21.9405 13.9996C21.6518 11.6171 20.3225 9.6635 18.1598 8.87696C18.0558 9.23325 18 9.61011 18 10C18 10.3913 18.0562 10.7696 18.161 11.127C18.907 11.6256 19.4472 12.3896 19.7422 13.3023C20.3695 13.732 21.1255 13.9877 21.9405 13.9996ZM16.0205 10.5001C16.0137 10.5 16.0069 10.5 16 10.5C13.51 10.5 12 12.52 12 15V21H20V15.6586C20.6256 15.8797 21.2987 16 22 16V20L24 22V23H8V22L10 20V15C10 11.92 11.64 9.36 14.5 8.68V8C14.5 7.17 15.17 6.5 16 6.5C16.3455 6.5 16.6632 6.61607 16.9164 6.81143C16.3358 7.73519 16 8.82838 16 10C16 10.1684 16.0069 10.3352 16.0205 10.5001ZM18 24C18 25.1 17.1 26 16 26C14.9 26 14 25.1 14 24H18Z" fill="#212328" fill-opacity="0.7"/>
<circle cx="22" cy="10" r="4" fill="#B00020"/>
</svg>
