<svg width="96" height="96" viewBox="0 0 316 316" fill="none" xmlns="http://www.w3.org/2000/svg">
<path d="M159.2 162.346L152.375 169.174L114.409 207.15L114.41 207.151C95.0944 226.491 91.3457 255.445 103.066 278.58L105.601 283.58L100.048 284.35C97.5523 284.696 95.002 284.89 92.4004 284.89C58.599 284.89 31.2188 257.426 31.2188 223.6C31.2189 189.771 58.6023 162.346 92.4004 162.346H159.2Z" fill="#F1CB60" stroke="white" stroke-width="8"/>
<path d="M161.863 223.528C161.863 250.858 179.632 273.984 204.244 282.042L209.613 283.799L206.171 288.28C204.697 290.199 203.069 292.185 201.168 294.053L201.169 294.054C177.272 317.982 138.527 317.982 114.63 294.054C90.7354 270.129 90.7354 231.344 114.63 207.419L114.737 207.312L155.033 166.965L161.863 160.126V223.528Z" fill="#52A1FF" stroke="white" stroke-width="8"/>
<path d="M168.975 163.484L206.938 201.495C226.257 220.806 255.17 224.584 278.189 212.857L283.198 210.306L283.968 215.873C284.313 218.371 284.508 220.924 284.508 223.528C284.508 257.357 257.124 284.783 223.326 284.783C189.528 284.783 162.145 257.357 162.145 223.528V156.646L168.975 163.484Z" fill="#52A1FF" stroke="white" stroke-width="8"/>
<path d="M287.968 109.621C289.701 110.956 291.383 112.384 293.011 113.93L293.705 114.6L293.721 114.615L293.735 114.629C317.63 138.554 317.63 177.339 293.735 201.264C269.838 225.192 231.094 225.192 207.196 201.264L207.089 201.157L166.793 160.809L159.975 153.983H223.291C250.543 153.983 273.676 136.196 281.725 111.548L283.482 106.166L287.968 109.621Z" fill="#06C9A4" stroke="white" stroke-width="8"/>
<path d="M223.29 31.1108C257.091 31.1108 284.472 58.5754 284.472 92.4009C284.472 126.23 257.088 153.655 223.29 153.655H156.496L163.314 146.829L201.28 108.814C220.562 89.5077 224.344 60.5534 212.624 37.4214L210.09 32.4214L215.643 31.6509C218.138 31.3049 220.688 31.1108 223.29 31.1108Z" fill="#06C9A4" stroke="white" stroke-width="8"/>
<path d="M114.521 21.9453C138.419 -1.98214 177.163 -1.98201 201.061 21.9453C224.953 45.8676 224.956 84.6509 201.062 108.542L201.062 108.543L200.953 108.652L160.657 148.999L153.827 155.838V92.4365C153.827 65.1407 136.058 41.9797 111.447 33.9229L106.023 32.1465L109.542 27.6543C111.031 25.7534 112.682 23.7871 114.521 21.9453Z" fill="#6E33FF" stroke="white" stroke-width="8"/>
<path d="M92.3301 31.2173C126.128 31.2174 153.512 58.6426 153.512 92.4712V153.69H147.817L146.646 152.516L110.4 116.225L110.37 116.195L110.34 116.164L108.773 114.526C89.4526 95.1918 60.4773 91.3832 37.4277 103.108L32.3408 105.696L31.6445 100.031C31.3429 97.577 31.1484 95.0763 31.1484 92.4712C31.1486 58.6426 58.532 31.2173 92.3301 31.2173Z" fill="#6E33FF" stroke="white" stroke-width="8"/>
<path d="M21.9209 114.737C45.8182 90.8094 84.5627 90.8094 108.46 114.737L148.863 155.192L155.682 162.019H92.3652C90.8311 162.019 89.3122 162.086 87.7979 162.189L87.6611 162.198H87.5254C87.4492 162.198 87.2902 162.209 86.9639 162.246L86.9277 162.25L86.8926 162.252C85.408 162.391 83.9689 162.56 82.5908 162.79L82.5107 162.803L82.4297 162.813C82.4583 162.809 82.4593 162.807 82.3359 162.833C82.29 162.842 82.1909 162.863 82.0977 162.881C82.0291 162.895 81.945 162.908 81.8506 162.923L81.8516 162.925C80.5313 163.163 79.241 163.434 77.9443 163.742L77.8125 163.773L77.6797 163.794C77.6455 163.8 77.6113 163.806 77.585 163.81C77.5563 163.815 77.5338 163.818 77.5127 163.822C77.5041 163.823 77.4963 163.824 77.4893 163.826L77.4492 163.839L77.2891 163.878C75.9507 164.205 74.6195 164.604 73.2402 165.053C73.1272 165.091 73.0137 165.131 72.8691 165.182C72.735 165.23 72.5701 165.286 72.3916 165.346L72.3926 165.347C71.0135 165.83 69.646 166.344 68.3232 166.887L68.1299 166.966C66.862 167.502 65.6611 168.056 64.5137 168.663L64.4746 168.683L64.4355 168.703C64.3466 168.747 64.2575 168.795 64.1172 168.87C64.0059 168.929 63.8551 169.008 63.6885 169.092L63.6895 169.093C62.4463 169.75 61.2522 170.416 60.1152 171.131L60.1143 171.13C59.9666 171.227 59.8284 171.315 59.7422 171.368C59.6129 171.447 59.5605 171.48 59.5244 171.504L59.4756 171.537L59.4248 171.568C58.4258 172.193 57.4061 172.892 56.3779 173.62C56.2243 173.749 56.0938 173.847 56.0088 173.909C55.9378 173.96 55.8634 174.012 55.8408 174.028C55.8034 174.054 55.8117 174.048 55.833 174.032L55.7861 174.067C54.7178 174.845 53.6631 175.701 52.6191 176.612L52.6074 176.623L52.5947 176.633C52.4695 176.741 52.3441 176.848 52.2188 176.956C52.1013 177.056 51.9828 177.156 51.8652 177.257L51.8662 177.258C50.8262 178.165 49.7815 179.144 48.8047 180.122L48.5537 180.373C47.6777 181.25 46.8437 182.176 45.9697 183.183C45.8135 183.387 45.6703 183.554 45.5732 183.665C45.3997 183.862 45.4018 183.855 45.3564 183.91L45.3486 183.919C44.4388 185.006 43.5746 186.073 42.7939 187.148C42.7312 187.236 42.6712 187.323 42.5967 187.431C42.5177 187.545 42.4206 187.685 42.3115 187.838L42.3047 187.847C41.5605 188.884 40.8682 189.937 40.1514 191.063C40.1001 191.151 40.0531 191.227 40.0127 191.289C39.98 191.339 39.9466 191.385 39.9199 191.423C39.1621 192.724 38.4678 193.918 37.8467 195.129C37.7813 195.26 37.7157 195.391 37.6504 195.522C37.5787 195.665 37.5072 195.809 37.4355 195.953C36.7984 197.228 36.2384 198.388 35.7441 199.573C35.6963 199.727 35.6486 199.856 35.6094 199.958C35.5728 200.052 35.5371 200.136 35.5205 200.175C35.4987 200.227 35.4954 200.237 35.4922 200.245L35.4707 200.297C34.9663 201.509 34.5042 202.735 34.1133 203.942L34.0723 204.069L34.0225 204.193C33.9639 204.339 33.7844 204.809 33.4883 205.303L31.1553 209.196L27.5869 206.393C25.6385 204.863 23.7246 203.178 21.9209 201.372C-1.97351 177.447 -1.97359 138.662 21.9209 114.737Z" fill="#F1CB60" stroke="white" stroke-width="8"/>
<ellipse cx="157.5" cy="158" rx="5.5" ry="5" fill="white"/>
</svg>
