<svg width="203" height="34" viewBox="0 0 164 34" fill="none" xmlns="http://www.w3.org/2000/svg">
<g clip-path="url(#clip0_574_31561)">
<path d="M49.3617 11.1658L54.742 21.9868H52.0142L50.8688 19.6658H44.9308L43.7854 21.9868H41.1028L46.5133 11.1658H49.3617ZM45.9556 17.586H49.859L47.9149 13.6374L45.9556 17.586Z" fill="#191F5E"/>
<path d="M59.0222 11.1658H61.5391V19.8316H68.8485V21.9868H59.0222V11.1658Z" fill="#191F5E"/>
<path d="M73.5507 21.9868V11.1658H83.9195V13.3209H76.0223V15.7775H83.0605V17.8874H76.0223V21.9868H73.5507Z" fill="#191F5E"/>
<path d="M91.1536 21.9868H88.6367V11.1658H95.5242C98.041 11.1658 99.729 12.3865 99.729 14.6472C99.729 16.2748 98.8096 17.4052 97.2875 17.8874L99.9852 21.9868H97.1066L94.65 18.1437H91.1536V21.9868ZM95.3885 16.094C96.5791 16.094 97.2573 15.5665 97.2573 14.6924C97.2573 13.8183 96.5791 13.2908 95.3885 13.2908H91.1536V16.094H95.3885Z" fill="#191F5E"/>
<path d="M114.936 11.1658V13.3209H106.918V15.4007H114.077V17.5257H106.918V19.8316H114.936V21.9868H104.446V11.1658H114.936Z" fill="#191F5E"/>
<path d="M120.452 18.0532C121.718 19.5453 123.647 20.0426 125.214 20.0426C126.887 20.0426 128.062 19.5905 128.062 18.8068C128.062 17.9025 127.173 17.8272 124.28 17.5107C121.702 17.2243 119.623 16.6968 119.623 14.5266C119.623 12.3564 121.687 11 124.822 11C127.264 11 129.434 11.8138 130.459 13.0044L128.876 14.6773C128.017 13.6826 126.45 13.0949 124.656 13.0949C122.863 13.0949 122.094 13.6073 122.094 14.2553C122.094 14.9637 122.848 15.1144 125.515 15.4158C128.349 15.7323 130.67 16.1694 130.67 18.5355C130.67 20.9017 128.289 22.1525 125.109 22.1525C122.622 22.1525 119.954 21.2634 118.869 19.8768L120.452 18.0532Z" fill="#191F5E"/>
<path d="M141.25 11C144.158 11 146.238 12.3112 147.067 14.4513L144.837 15.5213C144.294 14.0896 143.073 13.1853 141.25 13.1853C139.064 13.1853 137.391 14.5266 137.391 16.5763C137.391 18.6259 139.064 19.9673 141.25 19.9673C143.073 19.9673 144.294 19.063 144.837 17.6312L147.067 18.7013C146.238 20.8414 144.158 22.1525 141.25 22.1525C137.542 22.1525 134.829 19.8015 134.829 16.5763C134.829 13.3511 137.542 11 141.25 11Z" fill="#191F5E"/>
<path d="M163.871 16.5763C163.871 19.8015 161.173 22.1525 157.451 22.1525C153.728 22.1525 151.016 19.8015 151.016 16.5763C151.016 13.3511 153.713 11 157.451 11C161.189 11 163.871 13.3511 163.871 16.5763ZM153.578 16.5763C153.578 18.6259 155.19 19.9673 157.451 19.9673C159.712 19.9673 161.309 18.6259 161.309 16.5763C161.309 14.5266 159.697 13.1853 157.451 13.1853C155.205 13.1853 153.578 14.5266 153.578 16.5763Z" fill="#191F5E"/>
</g>
<g clip-path="url(#clip1_574_31561)">
<path d="M17.1291 17.3955L16.3948 18.1302L12.3099 22.2162L12.31 22.2163C10.2317 24.2972 9.82836 27.4125 11.0894 29.9017L11.3622 30.4397L10.7647 30.5225C10.4962 30.5597 10.2218 30.5806 9.94184 30.5806C6.30498 30.5806 3.35901 27.6256 3.35901 23.9861C3.35902 20.3463 6.30533 17.3955 9.94184 17.3955H17.1291Z" fill="#F1CB60" stroke="white" stroke-width="0.729953"/>
<path d="M17.4156 24.0506C17.4156 26.9912 19.3275 29.4794 21.9756 30.3464L22.5533 30.5355L22.1829 31.0176C22.0244 31.2241 21.8492 31.4378 21.6447 31.6387L21.6448 31.6389C19.0736 34.2134 14.9048 34.2134 12.3336 31.6389C9.76266 29.0646 9.76266 24.8916 12.3336 22.3174L12.3451 22.3059L16.6808 17.9647L17.4156 17.2289V24.0506Z" fill="#52A1FF" stroke="white" stroke-width="0.729953"/>
<path d="M18.1809 17.5901L22.2655 21.6799C24.3441 23.7577 27.455 24.1642 29.9317 22.9024L30.4707 22.6279L30.5535 23.2269C30.5906 23.4957 30.6116 23.7704 30.6116 24.0505C30.6116 27.6904 27.6652 30.6413 24.0288 30.6413C20.3923 30.6413 17.446 27.6904 17.446 24.0505V16.8544L18.1809 17.5901Z" fill="#52A1FF" stroke="white" stroke-width="0.729953"/>
<path d="M30.9839 11.7948C31.1703 11.9385 31.3513 12.0921 31.5265 12.2585L31.6011 12.3306L31.6029 12.3322L31.6044 12.3337C34.1753 14.9079 34.1753 19.081 31.6044 21.6552C29.0332 24.2297 24.8645 24.2297 22.2932 21.6552L22.2817 21.6436L17.946 17.3024L17.2125 16.568H24.0249C26.9571 16.568 29.4461 14.6542 30.3121 12.0022L30.5012 11.4231L30.9839 11.7948Z" fill="#06C9A4" stroke="white" stroke-width="0.729953"/>
<path d="M24.0249 3.34753C27.6617 3.34753 30.6078 6.30259 30.6078 9.94204C30.6078 13.5819 27.6614 16.5327 24.0249 16.5327H16.8382L17.5718 15.7982L21.6567 11.708C23.7314 9.63074 24.1383 6.51541 22.8773 4.02652L22.6046 3.48855L23.2021 3.40565C23.4706 3.36842 23.7449 3.34753 24.0249 3.34753Z" fill="#06C9A4" stroke="white" stroke-width="0.729953"/>
<path d="M12.3219 2.36127C14.8932 -0.213203 19.0618 -0.213189 21.6331 2.36127C24.2038 4.93519 24.2041 9.10807 21.6332 11.6786L21.6215 11.6905L17.2859 16.0316L16.551 16.7674V9.94577C16.551 7.00888 14.6391 4.51687 11.9911 3.65L11.4075 3.45887L11.7862 2.97553C11.9464 2.771 12.124 2.55944 12.3219 2.36127Z" fill="#6E33FF" stroke="white" stroke-width="0.729953"/>
<path d="M9.93428 3.35889C13.5708 3.3589 16.5171 6.30971 16.5171 9.9495V16.5363V17.1491L15.7784 16.41L11.8785 12.5053L11.8753 12.5021L11.8721 12.4987L11.7035 12.3225C9.62468 10.2422 6.50708 9.83243 4.02706 11.094L3.47974 11.3724L3.40482 10.7629C3.37237 10.4989 3.35144 10.2298 3.35144 9.9495C3.35146 6.30971 6.29778 3.35889 9.93428 3.35889Z" fill="#6E33FF" stroke="white" stroke-width="0.729953"/>
<path d="M16.9462 17.538C17.273 17.538 17.538 17.2971 17.538 17C17.538 16.7029 17.273 16.462 16.9462 16.462C16.6194 16.462 16.3544 16.7029 16.3544 17C16.3544 17.2971 16.6194 17.538 16.9462 17.538Z" fill="white"/>
<path d="M16.7503 17.3167L15.7115 17.3169L9.93377 17.3177L9.93377 17.3178C6.99281 17.3197 4.50475 19.2373 3.63631 21.8891L3.44877 22.4624L2.96771 22.0985C2.75151 21.935 2.54272 21.7557 2.34478 21.5578C-0.226863 18.9861 -0.220487 14.8135 2.35303 12.24C4.92679 9.66624 9.09667 9.66308 11.6681 12.2345L16.7503 17.3167Z" fill="#F1CB60" stroke="white" stroke-width="0.729953"/>
</g>
<defs>
<clipPath id="clip0_574_31561">
<rect width="122.897" height="11.2348" fill="white" transform="translate(41.1028 11)"/>
</clipPath>
<clipPath id="clip1_574_31561">
<rect width="34" height="34" fill="white"/>
</clipPath>
</defs>
</svg>
