<?xml version="1.0" encoding="utf-8"?>
<!-- Generator: Adobe Illustrator 19.1.0, SVG Export Plug-In . SVG Version: 6.00 Build 0)  -->
<svg version="1.1" id="Layer_1" xmlns="http://www.w3.org/2000/svg" xmlns:xlink="http://www.w3.org/1999/xlink" x="0px" y="0px"
	 viewBox="0 0 145 42" style="enable-background:new 0 0 145 42;" width="145" height="42" xml:space="preserve">
<style type="text/css">
	.st0{fill:#FFFFFF;}
	.st1{fill:#8BDC01;}
	.st2{fill:#FBA100;}
	.st3{fill:#33AAFF;}
	.st4{fill:#017DFF;}
	.st5{fill:#FFE000;}
	.st6{fill:#47B41B;}
	.st7{fill-rule:evenodd;clip-rule:evenodd;fill:#FFFFFF;}
</style>
<g>
	<path class="st0" d="M21,21l-5.8-5.8l-0.2-0.2c-3.4-3.4-8.8-3.4-12.1,0c-3.4,3.4-3.4,8.8,0,12.1c3.4,3.4,8.8,3.3,12.1,0L21,21
		L21,21z"/>
	<path class="st0" d="M21,21l0,8.3l0,0.3c0,4.7-3.8,8.6-8.6,8.6c-4.7,0-8.6-3.8-8.6-8.6c0-4.7,3.8-8.6,8.6-8.6L21,21L21,21z"/>
	<path class="st0" d="M21,21l0,8.3l0,0.3c0,4.7-3.8,8.6-8.6,8.6c-4.7,0-8.6-3.8-8.6-8.6c0-4.7,3.8-8.6,8.6-8.6L21,21L21,21z"/>
	<path class="st0" d="M21,21l0,8.3l0,0.3c0,4.7-3.8,8.6-8.6,8.6c-4.7,0-8.6-3.8-8.6-8.6c0-0.5,0-1,0.1-1.5c3.3,2.3,8,2,11-1L21,21
		L21,21L21,21z"/>
	<path class="st1" d="M12.4,22.1c-4.1,0-7.5,3.4-7.5,7.5c0,4.1,3.4,7.5,7.5,7.5c4.1,0,7.5-3.4,7.5-7.5l0-0.3l0-7.2L12.4,22.1
		L12.4,22.1L12.4,22.1z"/>
	<path class="st0" d="M21,21l5.8,5.8l0.2,0.2c3.4,3.4,3.4,8.8,0,12.1c-3.4,3.4-8.8,3.4-12.1,0c-3.4-3.4-3.3-8.8,0-12.1L21,21L21,21z
		"/>
	<path class="st1" d="M15.7,27.8c-2.9,2.9-2.9,7.7,0,10.6c2.9,2.9,7.7,2.9,10.6,0c2.9-2.9,2.9-7.7,0-10.6l-0.2-0.2L21,22.5
		L15.7,27.8L15.7,27.8L15.7,27.8z"/>
	<path class="st0" d="M21,21l8.3,0l0.3,0c4.7,0,8.6,3.8,8.6,8.6c0,4.7-3.8,8.6-8.6,8.6c-4.7,0-8.6-3.8-8.6-8.6L21,21L21,21z"/>
	<path class="st1" d="M22.1,29.6c0,4.1,3.4,7.5,7.5,7.5c4.1,0,7.5-3.4,7.5-7.5c0-4.1-3.4-7.5-7.5-7.5l-0.3,0l-7.2,0L22.1,29.6
		L22.1,29.6L22.1,29.6z"/>
	<path class="st0" d="M21,21l5.8-5.8l0.2-0.2c3.4-3.4,8.8-3.4,12.1,0c3.4,3.4,3.4,8.8,0,12.1c-3.4,3.4-8.8,3.3-12.1,0L21,21L21,21z"
		/>
	<path class="st1" d="M27.8,26.3c2.9,2.9,7.7,2.9,10.6,0c2.9-2.9,2.9-7.7,0-10.6c-2.9-2.9-7.7-2.9-10.6,0l-0.2,0.2L22.5,21
		L27.8,26.3L27.8,26.3L27.8,26.3z"/>
	<path class="st0" d="M21,21l0-8.3l0-0.3c0-4.7,3.8-8.6,8.6-8.6c4.7,0,8.6,3.8,8.6,8.6c0,4.7-3.8,8.6-8.6,8.6L21,21L21,21z"/>
	<path class="st2" d="M29.6,19.9c4.1,0,7.5-3.4,7.5-7.5c0-4.1-3.4-7.5-7.5-7.5c-4.1,0-7.5,3.4-7.5,7.5l0,0.3l0,7.2H29.6L29.6,19.9
		L29.6,19.9z"/>
	<path class="st0" d="M21,21l-5.8-5.8l-0.2-0.2c-3.4-3.4-3.4-8.8,0-12.1c3.4-3.4,8.8-3.4,12.1,0c3.4,3.4,3.3,8.8,0,12.1L21,21L21,21
		z"/>
	<path class="st3" d="M26.3,14.2c2.9-2.9,2.9-7.7,0-10.6c-2.9-2.9-7.7-2.9-10.6,0c-2.9,2.9-2.9,7.7,0,10.6l0.2,0.2l5.1,5.1
		L26.3,14.2L26.3,14.2L26.3,14.2z"/>
	<path class="st0" d="M21,21l-8.3,0l-0.3,0c-4.7,0-8.6-3.8-8.6-8.6c0-4.7,3.8-8.6,8.6-8.6c4.7,0,8.6,3.8,8.6,8.6L21,21L21,21z"/>
	<path class="st3" d="M19.9,12.4c0-4.1-3.4-7.5-7.5-7.5c-4.1,0-7.5,3.4-7.5,7.5c0,4.1,3.4,7.5,7.5,7.5l0.3,0l7.2,0L19.9,12.4
		L19.9,12.4L19.9,12.4z"/>
	<path class="st0" d="M21,21L0.3,21c0-2.2,0.8-4.4,2.5-6.1c3.4-3.4,8.8-3.3,12.1,0L21,21L21,21z"/>
	<path class="st3" d="M14.2,15.7l5.3,5.3l-7,0c-3.8,0-7,2.5-8.2,5.9c-0.2-0.2-0.5-0.4-0.7-0.6c-2.9-2.9-2.9-7.7,0-10.6
		C6.5,12.8,11.2,12.8,14.2,15.7L14.2,15.7z"/>
	<path class="st4" d="M14.2,15.7l4.2,4.2h-5.6l-0.3,0c-3.4,0-6.3-2.3-7.2-5.4C8.1,12.9,11.7,13.3,14.2,15.7L14.2,15.7L14.2,15.7z"/>
	<path class="st4" d="M19.9,12.4l0,5.9l-4-4l-0.2-0.2c-2.4-2.4-2.8-6.1-1.2-8.9C17.6,6.1,19.9,9,19.9,12.4L19.9,12.4L19.9,12.4z"/>
	<path class="st4" d="M26.3,14.2l-4.2,4.2l0-5.6l0-0.3c0-3.4,2.3-6.3,5.4-7.2C29.2,8,28.7,11.7,26.3,14.2L26.3,14.2L26.3,14.2z"/>
	<path class="st5" d="M29.6,19.9l-5.9,0l4-4l0.2-0.2c2.4-2.4,6.1-2.8,9-1.2C35.9,17.6,33,19.9,29.6,19.9L29.6,19.9L29.6,19.9z"/>
	<path class="st6" d="M27.8,26.3l-4.2-4.2l5.6,0l0.3,0c3.4,0,6.3,2.3,7.2,5.4C33.9,29.1,30.2,28.7,27.8,26.3L27.8,26.3L27.8,26.3z"
		/>
	<path class="st6" d="M22.1,29.5l0-5.9l4,4l0.2,0.2c2.4,2.4,2.8,6.1,1.2,8.9C24.4,35.9,22.1,33,22.1,29.5L22.1,29.5L22.1,29.5z"/>
	<path class="st6" d="M15.7,27.8l4.2-4.2l0,5.6l0,0.3c0,3.4-2.3,6.3-5.4,7.2C12.9,34,13.3,30.3,15.7,27.8L15.7,27.8L15.7,27.8z"/>
	<path class="st6" d="M12.4,22.1l5.9,0l-4,4l-0.2,0.2c-2.4,2.4-6.1,2.8-9,1.2C6.1,24.4,9,22.1,12.4,22.1L12.4,22.1L12.4,22.1z"/>
	<path class="st7" d="M43.2,32.4h2.3l2.7-6.9h10.2l2.7,6.9h2.3l-8.8-22.3h-2.4L43.2,32.4L43.2,32.4z M53.3,12.2l4.3,11.4h-8.8
		L53.3,12.2L53.3,12.2z"/>
	<polygon class="st0" points="64.1,32.4 66.1,32.4 66.1,10.1 64.1,10.1 64.1,32.4 	"/>
	<path class="st0" d="M74.5,16.3h-3.2v-1.4c0-0.4,0-0.8,0-1.2c0-0.4,0.1-0.7,0.2-1c0.1-0.3,0.3-0.5,0.6-0.7c0.3-0.2,0.7-0.3,1.3-0.3
		c0.2,0,0.5,0,0.7,0c0.2,0,0.5,0.1,0.8,0.1v-1.7c-0.3,0-0.6-0.1-0.8-0.1c-0.3,0-0.5,0-0.8,0c-0.8,0-1.4,0.1-2,0.3
		c-0.5,0.2-0.9,0.6-1.2,1c-0.3,0.4-0.5,0.9-0.6,1.5c-0.1,0.6-0.2,1.2-0.2,1.9v1.5h-2.8V18h2.8v14.5h2V18h3.2V16.3L74.5,16.3z"/>
	<path class="st0" d="M75.1,32.4h2V24c0-0.8,0.1-1.6,0.4-2.3c0.3-0.7,0.7-1.3,1.2-1.8c0.5-0.5,1.2-0.9,1.9-1.2
		c0.7-0.3,1.5-0.4,2.4-0.4v-2c-1.5-0.1-2.7,0.2-3.8,0.9c-1.1,0.6-1.8,1.6-2.3,2.9h-0.1v-3.8h-1.8V32.4L75.1,32.4z"/>
	<path class="st7" d="M96.4,24.9c0-1.1-0.1-2.1-0.3-3.2c-0.3-1-0.7-2-1.2-2.8c-0.6-0.8-1.3-1.4-2.2-1.9c-0.9-0.5-2-0.7-3.3-0.7
		c-1.3,0-2.4,0.2-3.3,0.7c-0.9,0.5-1.7,1.1-2.3,1.8c-0.6,0.8-1,1.6-1.3,2.6c-0.3,1-0.4,1.9-0.4,3c0,1.1,0.1,2.1,0.4,3.1
		c0.3,1,0.7,1.8,1.3,2.6c0.6,0.7,1.3,1.3,2.3,1.8c0.9,0.4,2,0.6,3.3,0.6c2,0,3.6-0.5,4.7-1.5c1.1-1,1.9-2.4,2.3-4.3h-2
		c-0.3,1.2-0.9,2.2-1.7,3c-0.8,0.8-1.9,1.1-3.4,1.1c-0.9,0-1.7-0.2-2.4-0.5c-0.7-0.4-1.2-0.8-1.6-1.4c-0.4-0.6-0.7-1.2-0.9-1.9
		c-0.2-0.7-0.3-1.4-0.3-2.1H96.4L96.4,24.9z M84,23.2c0.1-0.7,0.3-1.3,0.5-2c0.3-0.6,0.6-1.2,1-1.7c0.4-0.5,1-0.9,1.6-1.2
		c0.6-0.3,1.3-0.4,2.2-0.4c0.8,0,1.5,0.1,2.1,0.4c0.6,0.3,1.2,0.7,1.6,1.2c0.4,0.5,0.8,1,1,1.7c0.2,0.6,0.4,1.3,0.4,2H84L84,23.2z"
		/>
	<path class="st0" d="M109.5,21c0-0.9-0.2-1.6-0.5-2.3c-0.3-0.6-0.7-1.2-1.3-1.6c-0.5-0.4-1.1-0.8-1.8-1c-0.7-0.2-1.5-0.3-2.3-0.3
		c-0.7,0-1.4,0.1-2.1,0.3c-0.7,0.2-1.4,0.4-2,0.8c-0.6,0.4-1.1,0.8-1.4,1.4c-0.4,0.6-0.5,1.3-0.5,2.1c0,0.7,0.1,1.3,0.3,1.7
		c0.2,0.5,0.5,0.9,1,1.2c0.4,0.3,0.9,0.6,1.4,0.8c0.5,0.2,1.1,0.4,1.8,0.6l2.5,0.6c0.4,0.1,0.9,0.2,1.3,0.4c0.4,0.1,0.8,0.3,1.1,0.5
		c0.3,0.2,0.6,0.5,0.8,0.8c0.2,0.3,0.3,0.7,0.3,1.2c0,0.6-0.1,1-0.4,1.4c-0.3,0.4-0.6,0.7-1.1,1c-0.4,0.3-0.9,0.4-1.4,0.5
		c-0.5,0.1-1,0.2-1.5,0.2c-1.3,0-2.4-0.3-3.3-1c-0.9-0.7-1.4-1.7-1.5-3h-2c0.2,2,0.8,3.4,2,4.3c1.2,0.9,2.7,1.4,4.6,1.4
		c0.8,0,1.5-0.1,2.3-0.3c0.8-0.2,1.5-0.5,2.1-0.8c0.6-0.4,1.1-0.9,1.5-1.5c0.4-0.6,0.6-1.4,0.6-2.2c0-0.7-0.1-1.3-0.4-1.8
		c-0.3-0.5-0.6-1-1-1.3c-0.4-0.4-0.9-0.6-1.5-0.9c-0.6-0.2-1.1-0.4-1.7-0.5l-2.6-0.6c-0.3-0.1-0.7-0.2-1.1-0.3
		c-0.4-0.1-0.8-0.3-1.1-0.5c-0.3-0.2-0.6-0.5-0.8-0.8c-0.2-0.3-0.3-0.7-0.3-1.1c0-0.5,0.1-1,0.3-1.3c0.2-0.4,0.5-0.6,0.9-0.9
		c0.4-0.2,0.8-0.4,1.2-0.5c0.4-0.1,0.9-0.1,1.3-0.1c0.6,0,1.1,0.1,1.6,0.2c0.5,0.1,0.9,0.3,1.3,0.6c0.4,0.3,0.7,0.7,0.9,1.1
		c0.2,0.4,0.4,1,0.4,1.6H109.5L109.5,21z"/>
	<path class="st0" d="M124.4,21.8c-0.2-1.9-0.9-3.2-2.1-4.2c-1.2-0.9-2.7-1.4-4.4-1.4c-1.2,0-2.3,0.2-3.3,0.6
		c-0.9,0.4-1.7,1-2.4,1.7c-0.6,0.7-1.1,1.6-1.5,2.6c-0.3,1-0.5,2-0.5,3.1c0,1.1,0.2,2.1,0.5,3.1c0.3,1,0.8,1.8,1.5,2.6
		c0.6,0.7,1.4,1.3,2.4,1.7c0.9,0.4,2,0.6,3.3,0.6c1.8,0,3.3-0.6,4.5-1.7c1.2-1.1,1.9-2.6,2.2-4.6h-2c-0.1,0.7-0.2,1.3-0.5,1.8
		c-0.3,0.6-0.6,1-1,1.5c-0.4,0.4-0.9,0.7-1.4,1c-0.5,0.2-1.1,0.3-1.7,0.3c-0.9,0-1.8-0.2-2.5-0.6c-0.7-0.4-1.3-0.9-1.8-1.5
		c-0.5-0.6-0.8-1.3-1.1-2.1c-0.2-0.8-0.4-1.5-0.4-2.3c0-0.8,0.1-1.6,0.4-2.3c0.2-0.8,0.6-1.5,1.1-2.1c0.5-0.6,1.1-1.1,1.8-1.5
		c0.7-0.4,1.5-0.6,2.5-0.6c1.3,0,2.3,0.3,3,1c0.7,0.7,1.2,1.6,1.5,2.8H124.4L124.4,21.8z"/>
	<path class="st7" d="M132.8,16.3c-1.2,0-2.3,0.2-3.3,0.6c-0.9,0.4-1.7,1-2.4,1.7c-0.6,0.7-1.1,1.6-1.5,2.6c-0.3,1-0.5,2-0.5,3.1
		c0,1.1,0.2,2.1,0.5,3.1c0.3,1,0.8,1.8,1.5,2.6c0.6,0.7,1.4,1.3,2.4,1.7c0.9,0.4,2,0.6,3.3,0.6c1.2,0,2.3-0.2,3.3-0.6
		c0.9-0.4,1.7-1,2.4-1.7c0.6-0.7,1.1-1.6,1.5-2.6c0.3-1,0.5-2,0.5-3.1c0-1.1-0.2-2.1-0.5-3.1c-0.3-1-0.8-1.8-1.5-2.6
		c-0.6-0.7-1.4-1.3-2.4-1.7C135.1,16.5,134.1,16.3,132.8,16.3L132.8,16.3z M132.8,18c0.9,0,1.8,0.2,2.5,0.6c0.7,0.4,1.3,0.9,1.8,1.5
		c0.5,0.6,0.8,1.3,1.1,2.1c0.2,0.8,0.4,1.5,0.4,2.3c0,0.8-0.1,1.6-0.4,2.3c-0.2,0.8-0.6,1.5-1.1,2.1c-0.5,0.6-1.1,1.1-1.8,1.5
		c-0.7,0.4-1.5,0.6-2.5,0.6c-0.9,0-1.8-0.2-2.5-0.6c-0.7-0.4-1.3-0.9-1.8-1.5c-0.5-0.6-0.8-1.3-1.1-2.1c-0.2-0.8-0.4-1.5-0.4-2.3
		c0-0.8,0.1-1.6,0.4-2.3c0.2-0.8,0.6-1.5,1.1-2.1c0.5-0.6,1.1-1.1,1.8-1.5C131.1,18.1,131.9,18,132.8,18L132.8,18z"/>
	<polygon class="st0" points="139.5,16.4 140.3,16.4 140.3,18.5 140.5,18.5 140.5,16.4 141.3,16.4 141.3,16.2 139.5,16.2 
		139.5,16.4 	"/>
	<polygon class="st0" points="141.5,18.5 141.8,18.5 141.8,16.6 141.8,16.6 142.5,18.5 142.8,18.5 143.5,16.6 143.5,16.6 
		143.5,18.5 143.8,18.5 143.8,16.2 143.4,16.2 142.6,18.2 141.9,16.2 141.5,16.2 141.5,18.5 	"/>
</g>
</svg>
