<svg xmlns="http://www.w3.org/2000/svg" width="2500" height="679" viewBox="-28.579 0.045 559.585 152.029"><path d="M133.156 123.088h9.079l10.697-27.866h40.42l10.821 27.866h9.076l-34.822-89.644h-9.457l-35.814 89.644zm40.167-81.102l17.165 45.949h-34.947l17.782-45.949zM216.297 123.088h7.835V33.444h-7.835zM257.682 58.307H245v-5.649c0-1.759.038-3.391.123-4.895.082-1.513.393-2.827.932-3.959.538-1.128 1.388-2.028 2.547-2.7 1.16-.668 2.82-1.004 4.979-1.004.911 0 1.824.063 2.737.187.907.126 1.903.272 2.979.441V33.95a60.119 60.119 0 0 0-3.354-.374 38.578 38.578 0 0 0-3.235-.132c-3.151 0-5.742.464-7.775 1.381-2.031.92-3.63 2.218-4.788 3.89-1.161 1.68-1.943 3.688-2.364 6.026-.412 2.346-.622 4.9-.622 7.66v5.904h-10.942v6.649h10.942v58.132H245v-58.13h12.682v-6.649zM260.129 123.088h7.837V89.09c0-3.293.577-6.389 1.742-9.272 1.158-2.885 2.797-5.355 4.908-7.42 2.12-2.06 4.628-3.648 7.526-4.762 2.899-1.117 6.136-1.584 9.698-1.425v-7.903c-5.802-.252-10.798.895-14.985 3.45-4.185 2.559-7.271 6.466-9.264 11.741h-.246V58.307h-7.218l.002 64.781zM344.963 92.833a46.345 46.345 0 0 0-1.244-12.678c-.988-4.171-2.627-7.859-4.911-11.078-2.28-3.21-5.239-5.812-8.893-7.798-3.646-1.983-8.041-2.973-13.182-2.973s-9.536.93-13.184 2.787c-3.648 1.857-6.637 4.31-8.956 7.358-2.315 3.041-4.04 6.503-5.162 10.379a42.728 42.728 0 0 0-1.678 11.867c0 4.349.562 8.48 1.678 12.396 1.122 3.913 2.847 7.356 5.162 10.325 2.319 2.968 5.307 5.315 8.956 7.058 3.646 1.746 8.043 2.608 13.184 2.608 8.124 0 14.403-2.027 18.841-6.088 4.438-4.059 7.484-9.772 9.144-17.141h-7.836c-1.243 4.942-3.481 8.938-6.716 11.994-3.234 3.051-7.712 4.582-13.433 4.582-3.729 0-6.941-.734-9.639-2.203-2.694-1.475-4.873-3.338-6.531-5.585-1.655-2.246-2.901-4.772-3.725-7.562-.836-2.791-1.247-5.541-1.247-8.253h49.371v.005zm-49.375-6.659a31.032 31.032 0 0 1 2.054-7.89c1.039-2.583 2.421-4.854 4.163-6.81 1.743-1.958 3.855-3.538 6.351-4.723 2.481-1.193 5.339-1.796 8.575-1.796 3.148 0 5.968.604 8.458 1.796 2.489 1.187 4.603 2.766 6.343 4.723 1.738 1.956 3.085 4.214 4.039 6.739a24.634 24.634 0 0 1 1.558 7.958l-41.541.003zM396.906 77.264c-.166-3.514-.872-6.569-2.113-9.165-1.244-2.593-2.923-4.77-5.031-6.527-2.119-1.76-4.566-3.057-7.344-3.892-2.778-.84-5.788-1.26-9.018-1.26-2.817 0-5.656.336-8.521 1.003-2.857.674-5.447 1.723-7.767 3.146-2.331 1.419-4.217 3.307-5.664 5.643-1.449 2.349-2.18 5.157-2.18 8.418 0 2.765.454 5.085 1.368 6.972a13.745 13.745 0 0 0 3.792 4.768c1.616 1.301 3.506 2.387 5.664 3.269 2.153.876 4.516 1.648 7.087 2.319l10.077 2.26a56.06 56.06 0 0 1 5.16 1.507c1.701.586 3.214 1.315 4.542 2.197a10.069 10.069 0 0 1 3.17 3.326c.788 1.337 1.185 2.928 1.185 4.774 0 2.256-.564 4.164-1.678 5.711-1.125 1.552-2.558 2.824-4.291 3.832a18.92 18.92 0 0 1-5.727 2.125c-2.068.426-4.021.633-5.847.633-5.226 0-9.594-1.359-13.12-4.08-3.524-2.722-5.453-6.761-5.79-12.115h-7.836c.667 7.955 3.344 13.75 8.026 17.39 4.688 3.641 10.803 5.458 18.347 5.458 2.987 0 6.01-.354 9.079-1.062 3.065-.715 5.826-1.84 8.27-3.395a19.408 19.408 0 0 0 6.035-6.031c1.571-2.467 2.361-5.455 2.361-8.971 0-2.854-.538-5.318-1.616-7.415-1.077-2.086-2.466-3.844-4.168-5.268-1.699-1.422-3.646-2.576-5.846-3.455a29.712 29.712 0 0 0-6.652-1.819l-10.449-2.389a52.697 52.697 0 0 1-4.353-1.314 20.435 20.435 0 0 1-4.353-2.076 11.53 11.53 0 0 1-3.302-3.07c-.869-1.211-1.295-2.698-1.295-4.457 0-2.086.447-3.854 1.359-5.271.906-1.426 2.116-2.576 3.612-3.455 1.485-.876 3.125-1.499 4.907-1.882a25.304 25.304 0 0 1 5.286-.562c2.237 0 4.35.265 6.346.815 1.981.541 3.751 1.396 5.281 2.573 1.533 1.165 2.759 2.652 3.671 4.457.914 1.796 1.404 3.908 1.492 6.339h7.841v-.004zM456.035 80.526c-.912-7.449-3.753-13.017-8.521-16.696-4.774-3.684-10.597-5.524-17.476-5.524-4.896 0-9.226.865-12.999 2.607-3.772 1.74-6.949 4.076-9.519 6.999-2.568 2.933-4.513 6.372-5.842 10.326-1.326 3.955-1.991 8.107-1.991 12.458 0 4.429.665 8.6 1.991 12.517 1.329 3.916 3.272 7.336 5.842 10.267 2.569 2.93 5.743 5.256 9.519 6.998 3.773 1.746 8.104 2.608 12.999 2.608 7.211 0 13.157-2.22 17.844-6.652 4.688-4.436 7.568-10.585 8.646-18.454h-7.836c-.245 2.68-.915 5.146-1.991 7.403-1.078 2.263-2.447 4.206-4.099 5.843a18.361 18.361 0 0 1-5.726 3.828c-2.15.923-4.438 1.381-6.84 1.381-3.734 0-7.011-.74-9.832-2.218-2.82-1.48-5.157-3.434-7.022-5.853-1.863-2.417-3.273-5.171-4.229-8.245a31.795 31.795 0 0 1-1.434-9.423c0-3.2.48-6.335 1.434-9.419.958-3.074 2.366-5.828 4.229-8.244 1.865-2.419 4.202-4.369 7.022-5.852 2.82-1.485 6.098-2.226 9.832-2.226 5.138 0 9.183 1.382 12.122 4.143 2.951 2.768 4.955 6.575 6.035 11.431h7.84l.002-.003zM489.688 58.307c-4.89 0-9.222.865-12.997 2.608-3.771 1.74-6.945 4.076-9.509 6.999-2.577 2.932-4.521 6.371-5.849 10.326-1.325 3.953-1.991 8.107-1.991 12.456 0 4.431.666 8.6 1.991 12.519 1.327 3.916 3.272 7.336 5.849 10.265 2.562 2.931 5.737 5.258 9.509 7 3.775 1.746 8.107 2.608 12.997 2.608 4.896 0 9.229-.864 12.999-2.608 3.773-1.742 6.945-4.069 9.518-7 2.566-2.929 4.519-6.349 5.844-10.265 1.324-3.919 1.99-8.088 1.99-12.519 0-4.351-.666-8.503-1.99-12.456-1.325-3.956-3.276-7.395-5.844-10.326-2.572-2.923-5.742-5.259-9.518-6.999-3.771-1.744-8.103-2.608-12.999-2.608zm0 6.649c3.731 0 7.011.74 9.826 2.226 2.819 1.482 5.161 3.433 7.03 5.852 1.862 2.417 3.275 5.17 4.229 8.244a31.841 31.841 0 0 1 1.434 9.419c0 3.196-.483 6.338-1.434 9.423-.954 3.074-2.365 5.828-4.229 8.245-1.869 2.419-4.211 4.371-7.03 5.853-2.813 1.476-6.095 2.218-9.826 2.218-3.729 0-7.007-.74-9.821-2.218-2.82-1.48-5.162-3.434-7.035-5.853-1.856-2.417-3.271-5.171-4.223-8.245a31.754 31.754 0 0 1-1.427-9.423c0-3.2.474-6.335 1.427-9.419.951-3.074 2.366-5.828 4.223-8.244 1.873-2.419 4.215-4.369 7.035-5.852 2.814-1.486 6.09-2.226 9.821-2.226zM531.006 62.635c0 3.515-2.664 6.25-6.127 6.25s-6.131-2.735-6.131-6.25c0-3.507 2.668-6.25 6.131-6.25s6.127 2.744 6.127 6.25zm-11.299 0c0 2.99 2.2 5.362 5.172 5.362 2.968 0 5.178-2.371 5.178-5.362 0-2.986-2.21-5.356-5.178-5.356-2.972 0-5.172 2.37-5.172 5.356zm3.824 3.615h-.878v-7.226h2.714c1.602 0 2.312.704 2.312 1.999 0 1.283-.824 1.852-1.776 2.017l2.104 3.211h-1.018l-1.999-3.211h-1.46v3.21zm1.147-3.962c1.075 0 2.128-.035 2.128-1.264 0-1.007-.827-1.244-1.68-1.244h-1.597v2.508h1.149z" fill="#7a7d81"/><path d="M45.967 76.098L24.941 54.635l-.763-.782c-12.052-12.33-31.69-12.33-43.684-.048-12.09 12.272-12.09 32.231 0 44.519 11.993 12.32 31.579 12.32 43.625 0l21.848-22.226z" fill="#fff"/><path d="M45.967 76.069v30.316l.043 1.113c0 17.382-13.846 31.558-30.912 31.558-17.068 0-30.91-14.086-30.91-31.47 0-17.4 13.894-31.519 30.91-31.519l30.869.002z" fill="#fff"/><path d="M45.967 76.069v30.316l.043 1.113c0 17.382-13.846 31.558-30.912 31.558-17.068 0-30.91-14.086-30.91-31.47 0-17.4 13.894-31.519 30.91-31.519l30.869.002z" fill="#fff"/><path d="M45.967 76.069v30.316l.043 1.113c0 17.382-13.846 31.558-30.912 31.558-17.068 0-30.91-14.086-30.91-31.47 0-1.938.204-3.813.521-5.62 12.045 8.551 28.703 7.34 39.412-3.635l21.847-22.234v-.028z" fill="#fff"/><path d="M15.098 80.042c-14.871 0-26.96 12.331-26.96 27.546 0 15.158 12.089 27.461 26.96 27.461 14.921 0 26.967-12.303 26.967-27.461V80.042H15.098z" fill="#8bc037"/><path d="M45.967 76.069l21.009 21.425.865.781c12.002 12.313 12.058 32.304 0 44.582-12.092 12.289-31.624 12.289-43.72 0-12.047-12.278-12.047-32.246 0-44.555l21.846-22.233z" fill="#fff"/><path d="M26.939 101.13c-10.553 10.736-10.553 28.184 0 38.889 10.504 10.741 27.586 10.741 38.139 0 10.507-10.707 10.507-28.151 0-38.889l-.878-.806-18.233-18.618-19.027 19.388-.001.036z" fill="#8bc037"/><path d="M45.967 76.069h29.77l1.083-.054c17.072 0 30.916 14.11 30.916 31.514 0 17.412-13.796 31.466-30.864 31.466-17.067 0-30.902-14.079-30.902-31.466v-31.46h-.003z" fill="#fff"/><path d="M49.906 107.529c0 15.194 12.041 27.5 26.964 27.5 14.856 0 26.901-12.306 26.901-27.5 0-15.213-12.045-27.487-26.901-27.487H49.906V107.529z" fill="#8bc037"/><path d="M45.967 76.069l21.008-21.456.813-.808c12.053-12.282 31.627-12.333 43.677-.057 12.052 12.315 12.052 32.244 0 44.554a30.446 30.446 0 0 1-43.677 0L45.967 76.069z" fill="#fff"/><path d="M70.606 95.456c10.461 10.771 27.532 10.771 38.089 0 10.562-10.719 10.562-28.115 0-38.861-10.557-10.735-27.628-10.735-38.089 0l-.865.84L51.54 76.069l18.972 19.364.094.023z" fill="#8bc037"/><path d="M45.967 76.069v-31.47c0-17.368 13.78-31.512 30.902-31.512 17.021 0 30.81 14.052 30.81 31.459 0 17.406-13.786 31.521-30.81 31.521H45.967v.002z" fill="#fff"/><path d="M76.869 72.068c14.856 0 26.902-12.311 26.902-27.517 0-15.149-12.045-27.488-26.902-27.488-14.922 0-27.02 12.339-27.02 27.488l.056 1.178v26.338h26.808l.156.001z" fill="#f99f38"/><path d="M45.967 76.069L24.941 54.614l-.82-.76c-12.047-12.33-12.047-32.303 0-44.582 11.995-12.304 31.582-12.304 43.669 0 12.053 12.281 12.053 32.252 0 44.534L45.967 76.069z" fill="#fff"/><path d="M65.022 51.243c10.503-10.74 10.503-28.171 0-38.895-10.548-10.73-27.579-10.73-38.131 0-10.562 10.725-10.562 28.154 0 38.895l.769.824 18.308 18.586 19-19.362.054-.048z" fill="#0081c6"/><path d="M45.967 76.325H16.222l-1.124.031c-17.017 0-30.91-14.117-30.91-31.512 0-17.383 13.842-31.495 30.857-31.495 17.07 0 30.921 14.112 30.921 31.506v31.47z" fill="#fff"/><path d="M42.06 44.855c0-15.194-12.045-27.489-27.015-27.489-14.861 0-26.954 12.295-26.954 27.468 0 15.183 12.093 27.521 26.954 27.521l1.177-.031H42.06V44.855z" fill="#0081c6"/><path d="M45.967 76.325l-74.546.031c0-8.052 2.971-16.122 9.074-22.293 11.992-12.281 31.579-12.281 43.625 0l21.847 22.262z" fill="#fff"/><path d="M21.352 56.888l19.069 19.437H15.098c-13.687 0-25.325 9.097-29.367 21.737-.824-.729-1.698-1.469-2.46-2.299-10.562-10.738-10.562-28.109 0-38.875 10.451-10.724 27.577-10.724 38.081 0" fill="#0081c6"/><path d="M21.4 56.912l15.091 15.396-21.465.065c-12.354 0-22.772-8.463-25.933-20.019 10.247-5.856 23.668-4.449 32.257 4.534l.05.024zM42.07 44.911l-.022 21.777-15.15-15.449c-8.725-8.915-10.261-22.401-4.519-32.854 11.327 3.234 19.689 13.851 19.689 26.466v.059l.002.001zM49.789 66.736V44.89c0-12.588 8.35-23.222 19.69-26.483 5.736 10.481 4.656 23.619-4.346 32.703L49.789 66.736z" fill="#005ea5"/><path d="M55.419 72.08l15.137-15.474a26.582 26.582 0 0 1 32.217-4.565C99.534 63.59 89.655 71.888 77.496 72.09l-22.077-.01z" fill="#ffdf4f"/><path d="M55.418 80.025h21.425c12.354 0 22.763 8.414 25.944 19.989-10.31 5.877-23.544 4.338-32.302-4.566L55.418 80.025zM49.904 107.385v-21.74l15.174 15.425c8.726 8.932 10.201 22.48 4.466 32.934-11.329-3.25-19.64-13.907-19.64-26.513v-.106zM26.975 101.078l15.081-15.382.034 21.854c0 12.598-8.298 23.185-19.629 26.449-5.738-10.473-4.201-23.989 4.514-32.879v-.042zM15.251 80.032h21.326L21.454 95.479c-8.706 8.896-22.051 10.433-32.292 4.582 3.222-11.584 13.641-20.028 25.995-20.028l.094-.001z" fill="#48a64a"/></svg>
