<?xml version="1.0" encoding="UTF-8" standalone="no"?>
<svg width="566px" height="165px" viewBox="0 0 566 165" version="1.1" xmlns="http://www.w3.org/2000/svg" xmlns:xlink="http://www.w3.org/1999/xlink">
    <!-- Generator: Sketch 3.8.3 (29802) - http://www.bohemiancoding.com/sketch -->
    <title>empty_doc_lib</title>
    <desc>Created with Sketch.</desc>
    <defs>
        <rect id="path-1" x="5.68434189e-14" y="-1.01962883e-12" width="78.1679389" height="78.1679389" rx="2"></rect>
        <filter x="-50%" y="-50%" width="200%" height="200%" filterUnits="objectBoundingBox" id="filter-2">
            <feOffset dx="0" dy="2" in="SourceAlpha" result="shadowOffsetOuter1"></feOffset>
            <feGaussianBlur stdDeviation="1" in="shadowOffsetOuter1" result="shadowBlurOuter1"></feGaussianBlur>
            <feColorMatrix values="0 0 0 0 0   0 0 0 0 0   0 0 0 0 0  0 0 0 0.24 0" type="matrix" in="shadowBlurOuter1" result="shadowMatrixOuter1"></feColorMatrix>
            <feOffset dx="0" dy="0" in="SourceAlpha" result="shadowOffsetOuter2"></feOffset>
            <feGaussianBlur stdDeviation="1" in="shadowOffsetOuter2" result="shadowBlurOuter2"></feGaussianBlur>
            <feColorMatrix values="0 0 0 0 0   0 0 0 0 0   0 0 0 0 0  0 0 0 0.12 0" type="matrix" in="shadowBlurOuter2" result="shadowMatrixOuter2"></feColorMatrix>
            <feMerge>
                <feMergeNode in="shadowMatrixOuter1"></feMergeNode>
                <feMergeNode in="shadowMatrixOuter2"></feMergeNode>
            </feMerge>
        </filter>
        <rect id="path-3" x="-4.54747351e-13" y="5.68434189e-13" width="78.1679389" height="78.1679389" rx="2"></rect>
        <filter x="-50%" y="-50%" width="200%" height="200%" filterUnits="objectBoundingBox" id="filter-4">
            <feOffset dx="0" dy="2" in="SourceAlpha" result="shadowOffsetOuter1"></feOffset>
            <feGaussianBlur stdDeviation="1" in="shadowOffsetOuter1" result="shadowBlurOuter1"></feGaussianBlur>
            <feColorMatrix values="0 0 0 0 0   0 0 0 0 0   0 0 0 0 0  0 0 0 0.24 0" type="matrix" in="shadowBlurOuter1" result="shadowMatrixOuter1"></feColorMatrix>
            <feOffset dx="0" dy="0" in="SourceAlpha" result="shadowOffsetOuter2"></feOffset>
            <feGaussianBlur stdDeviation="1" in="shadowOffsetOuter2" result="shadowBlurOuter2"></feGaussianBlur>
            <feColorMatrix values="0 0 0 0 0   0 0 0 0 0   0 0 0 0 0  0 0 0 0.12 0" type="matrix" in="shadowBlurOuter2" result="shadowMatrixOuter2"></feColorMatrix>
            <feMerge>
                <feMergeNode in="shadowMatrixOuter1"></feMergeNode>
                <feMergeNode in="shadowMatrixOuter2"></feMergeNode>
            </feMerge>
        </filter>
        <rect id="path-5" x="-1.08002496e-12" y="7.81597009e-14" width="78.1679389" height="78.1679389" rx="2"></rect>
        <filter x="-50%" y="-50%" width="200%" height="200%" filterUnits="objectBoundingBox" id="filter-6">
            <feOffset dx="0" dy="2" in="SourceAlpha" result="shadowOffsetOuter1"></feOffset>
            <feGaussianBlur stdDeviation="1" in="shadowOffsetOuter1" result="shadowBlurOuter1"></feGaussianBlur>
            <feColorMatrix values="0 0 0 0 0   0 0 0 0 0   0 0 0 0 0  0 0 0 0.24 0" type="matrix" in="shadowBlurOuter1" result="shadowMatrixOuter1"></feColorMatrix>
            <feOffset dx="0" dy="0" in="SourceAlpha" result="shadowOffsetOuter2"></feOffset>
            <feGaussianBlur stdDeviation="1" in="shadowOffsetOuter2" result="shadowBlurOuter2"></feGaussianBlur>
            <feColorMatrix values="0 0 0 0 0   0 0 0 0 0   0 0 0 0 0  0 0 0 0.12 0" type="matrix" in="shadowBlurOuter2" result="shadowMatrixOuter2"></feColorMatrix>
            <feMerge>
                <feMergeNode in="shadowMatrixOuter1"></feMergeNode>
                <feMergeNode in="shadowMatrixOuter2"></feMergeNode>
            </feMerge>
        </filter>
        <rect id="path-7" x="1.29318778e-12" y="9.23705556e-14" width="78.1679389" height="78.1679389" rx="2"></rect>
        <filter x="-50%" y="-50%" width="200%" height="200%" filterUnits="objectBoundingBox" id="filter-8">
            <feOffset dx="0" dy="2" in="SourceAlpha" result="shadowOffsetOuter1"></feOffset>
            <feGaussianBlur stdDeviation="1" in="shadowOffsetOuter1" result="shadowBlurOuter1"></feGaussianBlur>
            <feColorMatrix values="0 0 0 0 0   0 0 0 0 0   0 0 0 0 0  0 0 0 0.24 0" type="matrix" in="shadowBlurOuter1" result="shadowMatrixOuter1"></feColorMatrix>
            <feOffset dx="0" dy="0" in="SourceAlpha" result="shadowOffsetOuter2"></feOffset>
            <feGaussianBlur stdDeviation="1" in="shadowOffsetOuter2" result="shadowBlurOuter2"></feGaussianBlur>
            <feColorMatrix values="0 0 0 0 0   0 0 0 0 0   0 0 0 0 0  0 0 0 0.12 0" type="matrix" in="shadowBlurOuter2" result="shadowMatrixOuter2"></feColorMatrix>
            <feMerge>
                <feMergeNode in="shadowMatrixOuter1"></feMergeNode>
                <feMergeNode in="shadowMatrixOuter2"></feMergeNode>
            </feMerge>
        </filter>
        <rect id="path-9" x="-2.96651592e-13" y="-7.60280727e-13" width="78.1679389" height="78.1679389" rx="2"></rect>
        <filter x="-50%" y="-50%" width="200%" height="200%" filterUnits="objectBoundingBox" id="filter-10">
            <feOffset dx="0" dy="2" in="SourceAlpha" result="shadowOffsetOuter1"></feOffset>
            <feGaussianBlur stdDeviation="1" in="shadowOffsetOuter1" result="shadowBlurOuter1"></feGaussianBlur>
            <feColorMatrix values="0 0 0 0 0   0 0 0 0 0   0 0 0 0 0  0 0 0 0.24 0" type="matrix" in="shadowBlurOuter1" result="shadowMatrixOuter1"></feColorMatrix>
            <feOffset dx="0" dy="0" in="SourceAlpha" result="shadowOffsetOuter2"></feOffset>
            <feGaussianBlur stdDeviation="1" in="shadowOffsetOuter2" result="shadowBlurOuter2"></feGaussianBlur>
            <feColorMatrix values="0 0 0 0 0   0 0 0 0 0   0 0 0 0 0  0 0 0 0.12 0" type="matrix" in="shadowBlurOuter2" result="shadowMatrixOuter2"></feColorMatrix>
            <feMerge>
                <feMergeNode in="shadowMatrixOuter1"></feMergeNode>
                <feMergeNode in="shadowMatrixOuter2"></feMergeNode>
            </feMerge>
        </filter>
        <rect id="path-11" x="3.48165941e-13" y="2.27373675e-13" width="78.1679389" height="78.1679389" rx="2"></rect>
        <filter x="-50%" y="-50%" width="200%" height="200%" filterUnits="objectBoundingBox" id="filter-12">
            <feOffset dx="0" dy="2" in="SourceAlpha" result="shadowOffsetOuter1"></feOffset>
            <feGaussianBlur stdDeviation="1" in="shadowOffsetOuter1" result="shadowBlurOuter1"></feGaussianBlur>
            <feColorMatrix values="0 0 0 0 0   0 0 0 0 0   0 0 0 0 0  0 0 0 0.24 0" type="matrix" in="shadowBlurOuter1" result="shadowMatrixOuter1"></feColorMatrix>
            <feOffset dx="0" dy="0" in="SourceAlpha" result="shadowOffsetOuter2"></feOffset>
            <feGaussianBlur stdDeviation="1" in="shadowOffsetOuter2" result="shadowBlurOuter2"></feGaussianBlur>
            <feColorMatrix values="0 0 0 0 0   0 0 0 0 0   0 0 0 0 0  0 0 0 0.12 0" type="matrix" in="shadowBlurOuter2" result="shadowMatrixOuter2"></feColorMatrix>
            <feMerge>
                <feMergeNode in="shadowMatrixOuter1"></feMergeNode>
                <feMergeNode in="shadowMatrixOuter2"></feMergeNode>
            </feMerge>
        </filter>
        <rect id="path-13" x="0" y="-5.40012479e-13" width="78.1679389" height="78.1679389" rx="2"></rect>
        <filter x="-50%" y="-50%" width="200%" height="200%" filterUnits="objectBoundingBox" id="filter-14">
            <feOffset dx="0" dy="2" in="SourceAlpha" result="shadowOffsetOuter1"></feOffset>
            <feGaussianBlur stdDeviation="1" in="shadowOffsetOuter1" result="shadowBlurOuter1"></feGaussianBlur>
            <feColorMatrix values="0 0 0 0 0   0 0 0 0 0   0 0 0 0 0  0 0 0 0.24 0" type="matrix" in="shadowBlurOuter1" result="shadowMatrixOuter1"></feColorMatrix>
            <feOffset dx="0" dy="0" in="SourceAlpha" result="shadowOffsetOuter2"></feOffset>
            <feGaussianBlur stdDeviation="1" in="shadowOffsetOuter2" result="shadowBlurOuter2"></feGaussianBlur>
            <feColorMatrix values="0 0 0 0 0   0 0 0 0 0   0 0 0 0 0  0 0 0 0.12 0" type="matrix" in="shadowBlurOuter2" result="shadowMatrixOuter2"></feColorMatrix>
            <feMerge>
                <feMergeNode in="shadowMatrixOuter1"></feMergeNode>
                <feMergeNode in="shadowMatrixOuter2"></feMergeNode>
            </feMerge>
        </filter>
        <rect id="path-15" x="0" y="0" width="78.1679389" height="78.1679389" rx="2"></rect>
        <filter x="-50%" y="-50%" width="200%" height="200%" filterUnits="objectBoundingBox" id="filter-16">
            <feOffset dx="0" dy="2" in="SourceAlpha" result="shadowOffsetOuter1"></feOffset>
            <feGaussianBlur stdDeviation="1" in="shadowOffsetOuter1" result="shadowBlurOuter1"></feGaussianBlur>
            <feColorMatrix values="0 0 0 0 0   0 0 0 0 0   0 0 0 0 0  0 0 0 0.24 0" type="matrix" in="shadowBlurOuter1" result="shadowMatrixOuter1"></feColorMatrix>
            <feOffset dx="0" dy="0" in="SourceAlpha" result="shadowOffsetOuter2"></feOffset>
            <feGaussianBlur stdDeviation="1" in="shadowOffsetOuter2" result="shadowBlurOuter2"></feGaussianBlur>
            <feColorMatrix values="0 0 0 0 0   0 0 0 0 0   0 0 0 0 0  0 0 0 0.12 0" type="matrix" in="shadowBlurOuter2" result="shadowMatrixOuter2"></feColorMatrix>
            <feMerge>
                <feMergeNode in="shadowMatrixOuter1"></feMergeNode>
                <feMergeNode in="shadowMatrixOuter2"></feMergeNode>
            </feMerge>
        </filter>
    </defs>
    <g id="Symbols" stroke="none" stroke-width="1" fill="none" fill-rule="evenodd">
        <g id="empty-folder-state-desktop" transform="translate(-37.000000, -168.000000)">
            <g id="empty_doc_lib" transform="translate(38.000000, 169.000000)">
                <g id="Group-5" transform="translate(241.569490, 92.634375) rotate(-355.000000) translate(-241.569490, -92.634375) translate(202.069490, 53.134375)">
                    <g id="Rectangle-1196-Copy-2">
                        <use fill="black" fill-opacity="1" filter="url(#filter-2)" xlink:href="#path-1"></use>
                        <use fill="#FFFFFF" fill-rule="evenodd" xlink:href="#path-1"></use>
                    </g>
                    <g id="filetype_video" transform="translate(9.770992, 9.770992)">
                        <polygon id="Fill-1" points="0 58.6259542 58.6259542 58.6259542 58.6259542 0 0 0"></polygon>
                        <path d="M39.0839695,21.9847328 L43.9694656,21.9847328 L43.9694656,17.0992366 L39.0839695,17.0992366 L39.0839695,21.9847328 Z M39.0839695,31.7557252 L43.9694656,31.7557252 L43.9694656,26.870229 L39.0839695,26.870229 L39.0839695,31.7557252 Z M39.0839695,41.5267176 L43.9694656,41.5267176 L43.9694656,36.6412214 L39.0839695,36.6412214 L39.0839695,41.5267176 Z M14.6564885,21.9847328 L19.5419847,21.9847328 L19.5419847,17.0992366 L14.6564885,17.0992366 L14.6564885,21.9847328 Z M14.6564885,31.7557252 L19.5419847,31.7557252 L19.5419847,26.870229 L14.6564885,26.870229 L14.6564885,31.7557252 Z M14.6564885,41.5267176 L19.5419847,41.5267176 L19.5419847,36.6412214 L14.6564885,36.6412214 L14.6564885,41.5267176 Z M43.9694656,7.32824427 L43.9694656,12.2137405 L39.0839695,12.2137405 L39.0839695,7.32824427 L19.5419847,7.32824427 L19.5419847,12.2137405 L14.6564885,12.2137405 L14.6564885,7.32824427 L9.77099237,7.32824427 L9.77099237,51.2977099 L14.6564885,51.2977099 L14.6564885,46.4122137 L19.5419847,46.4122137 L19.5419847,51.2977099 L39.0839695,51.2977099 L39.0839695,46.4122137 L43.9694656,46.4122137 L43.9694656,51.2977099 L48.8549618,51.2977099 L48.8549618,7.32824427 L43.9694656,7.32824427 Z" id="Fill-2" fill="#FFC107"></path>
                    </g>
                </g>
                <g id="Group-7" transform="translate(515.948329, 81.354522) rotate(-345.000000) translate(-515.948329, -81.354522) translate(476.448329, 41.854522)">
                    <g id="Rectangle-1196-Copy-3">
                        <use fill="black" fill-opacity="1" filter="url(#filter-4)" xlink:href="#path-3"></use>
                        <use fill="#FFFFFF" fill-rule="evenodd" xlink:href="#path-3"></use>
                    </g>
                    <g id="filetype_image" transform="translate(9.770992, 9.770992)">
                        <polygon id="Fill-1" points="0 58.6259542 58.6259542 58.6259542 58.6259542 0 0 0"></polygon>
                        <path d="M20.7636031,32.9773435 L26.8704733,40.3178015 L35.4200916,29.3132214 L46.412458,43.9697099 L12.2139847,43.9697099 L20.7636031,32.9773435 Z M51.2979542,46.412458 L51.2979542,12.2139847 C51.2979542,9.51474809 49.1116947,7.32848855 46.412458,7.32848855 L12.2139847,7.32848855 C9.51474809,7.32848855 7.32848855,9.51474809 7.32848855,12.2139847 L7.32848855,46.412458 C7.32848855,49.1116947 9.51474809,51.2979542 12.2139847,51.2979542 L46.412458,51.2979542 C49.1116947,51.2979542 51.2979542,49.1116947 51.2979542,46.412458 L51.2979542,46.412458 Z" id="Fill-2" fill="#22BE73"></path>
                    </g>
                </g>
                <g id="Group-8" transform="translate(309.051884, 62.261808) rotate(-5.000000) translate(-309.051884, -62.261808) translate(269.551884, 22.761808)">
                    <g id="Rectangle-1196-Copy-4">
                        <use fill="black" fill-opacity="1" filter="url(#filter-6)" xlink:href="#path-5"></use>
                        <use fill="#FFFFFF" fill-rule="evenodd" xlink:href="#path-5"></use>
                    </g>
                    <g id="filetype_googledocs" transform="translate(9.770992, 9.770992)">
                        <polygon id="Fill-1" points="6.82121026e-13 58.6259542 58.6259542 58.6259542 58.6259542 -2.98427949e-13 6.82121026e-13 -2.98427949e-13"></polygon>
                        <g id="Group-6" transform="translate(9.770992, 4.885496)">
                            <path d="M7.32824427,21.9847328 L31.7557252,21.9847328 L31.7557252,19.5419847 L7.32824427,19.5419847 L7.32824427,21.9847328 Z M7.32824427,26.870229 L31.7557252,26.870229 L31.7557252,24.4274809 L7.32824427,24.4274809 L7.32824427,26.870229 Z M7.32824427,31.7557252 L31.7557252,31.7557252 L31.7557252,29.3129771 L7.32824427,29.3129771 L7.32824427,31.7557252 Z M7.32824427,36.6412214 L21.9847328,36.6412214 L21.9847328,34.1984733 L7.32824427,34.1984733 L7.32824427,36.6412214 Z M29.3129771,0 L4.88549618,0 C2.18625954,0 0.0244274809,2.18625954 0.0244274809,4.88549618 L0,43.9694656 C0,46.6687023 2.16183206,48.8549618 4.8610687,48.8549618 L34.1984733,48.8549618 C36.8977099,48.8549618 39.0839695,46.6687023 39.0839695,43.9694656 L39.0839695,9.77099237 L29.3129771,0 Z" id="Fill-2" fill="#2979FF"></path>
                            <polygon id="Fill-4" fill-opacity="0.5" fill="#FFFFFF" points="29.3129771 9.77099237 29.3129771 -2.84217094e-14 39.0839695 9.77099237"></polygon>
                            <polygon id="Fill-5" fill-opacity="0.2" fill="#000000" points="39.0839695 9.77099237 39.0839695 19.5419847 29.3129771 9.77099237"></polygon>
                        </g>
                    </g>
                </g>
                <g id="Group-9" transform="translate(155.408682, 49.364493) rotate(-345.000000) translate(-155.408682, -49.364493) translate(115.908682, 9.864493)">
                    <g id="Rectangle-1196-Copy-5">
                        <use fill="black" fill-opacity="1" filter="url(#filter-8)" xlink:href="#path-7"></use>
                        <use fill="#FFFFFF" fill-rule="evenodd" xlink:href="#path-7"></use>
                    </g>
                    <g id="filetype_pdf" transform="translate(9.770992, 9.770992)">
                        <polygon id="Fill-1" points="0 58.6259542 58.6259542 58.6259542 58.6259542 0 0 0"></polygon>
                        <path d="M45.1888855,25.5877863 L45.1888855,21.9187786 L37.853313,21.9187786 L37.853313,36.5923664 L41.5198779,36.5923664 L41.5198779,31.7777099 L45.1888855,31.7777099 L45.1888855,28.1087023 L41.5198779,28.1087023 L41.5198779,25.5877863 L45.1888855,25.5877863 Z M29.3696489,32.9233588 L31.7757557,32.9233588 L31.7757557,25.5877863 L29.3696489,25.5877863 L29.3696489,32.9233588 Z M35.4447634,32.9233588 L35.4447634,25.5877863 C35.4447634,24.5960305 35.1027786,23.7361832 34.4139237,23.0082443 C33.7275115,22.2827481 32.8481221,21.9187786 31.7781985,21.9187786 L25.703084,21.9187786 L25.703084,36.5923664 L31.7781985,36.5923664 C32.8481221,36.5923664 33.7275115,36.2308397 34.4139237,35.5029008 C35.1027786,34.7774046 35.4447634,33.9175573 35.4447634,32.9233588 L35.4447634,32.9233588 Z M17.1070534,28.1087023 L19.5131603,28.1087023 L19.5131603,25.5877863 L17.1070534,25.5877863 L17.1070534,28.1087023 Z M23.1821679,28.1087023 L23.1821679,25.5877863 C23.1821679,24.5960305 22.8181985,23.7361832 22.0927023,23.0082443 C21.3672061,22.2827481 20.5073588,21.9187786 19.5131603,21.9187786 L13.4380458,21.9187786 L13.4380458,36.5923664 L17.1070534,36.5923664 L17.1070534,31.7777099 L19.5131603,31.7777099 C20.5073588,31.7777099 21.3672061,31.4161832 22.0927023,30.6882443 C22.8181985,29.9627481 23.1821679,29.1029008 23.1821679,28.1087023 L23.1821679,28.1087023 Z M46.483542,7.32824427 C47.783084,7.32824427 48.9091908,7.8070229 49.8643053,8.7621374 C50.8218626,9.71725191 51.2981985,10.8433588 51.2981985,12.1429008 L51.2981985,46.3682443 C51.2981985,47.670229 50.8218626,48.8158779 49.8643053,49.8076336 C48.9091908,50.8018321 47.783084,51.2977099 46.483542,51.2977099 L12.2581985,51.2977099 C10.9586565,51.2977099 9.81300763,50.8018321 8.81880916,49.8076336 C7.82461069,48.8158779 7.32873282,47.670229 7.32873282,46.3682443 L7.32873282,12.1429008 C7.32873282,10.8433588 7.82461069,9.71725191 8.81880916,8.7621374 C9.81300763,7.8070229 10.9586565,7.32824427 12.2581985,7.32824427 L46.483542,7.32824427 Z" id="Fill-2" fill="#E91E63"></path>
                    </g>
                </g>
                <g id="Group-12" transform="translate(49.364493, 62.584254) rotate(-15.000000) translate(-49.364493, -62.584254) translate(9.864493, 23.084254)">
                    <g id="Rectangle-1196-Copy-7">
                        <use fill="black" fill-opacity="1" filter="url(#filter-10)" xlink:href="#path-9"></use>
                        <use fill="#FFFFFF" fill-rule="evenodd" xlink:href="#path-9"></use>
                    </g>
                    <g id="filetype_forms" transform="translate(9.770992, 9.770992)">
                        <polygon id="Fill-1" points="0 58.6259542 58.6259542 58.6259542 58.6259542 0 0 0"></polygon>
                        <path d="M24.4274809,24.4250382 L41.5267176,24.4250382 L41.5267176,19.539542 L24.4274809,19.539542 L24.4274809,24.4250382 Z M24.4274809,31.7532824 L41.5267176,31.7532824 L41.5267176,26.8677863 L24.4274809,26.8677863 L24.4274809,31.7532824 Z M24.4274809,39.0839695 L41.5267176,39.0839695 L41.5267176,34.1984733 L24.4274809,34.1984733 L24.4274809,39.0839695 Z M17.0992366,24.4250382 L21.9847328,24.4250382 L21.9847328,19.539542 L17.0992366,19.539542 L17.0992366,24.4250382 Z M17.0992366,31.7532824 L21.9847328,31.7532824 L21.9847328,26.8677863 L17.0992366,26.8677863 L17.0992366,31.7532824 Z M17.0992366,39.0839695 L21.9847328,39.0839695 L21.9847328,34.1984733 L17.0992366,34.1984733 L17.0992366,39.0839695 Z M43.9694656,9.77099237 L14.6564885,9.77099237 C11.9694656,9.77099237 9.77099237,11.9694656 9.77099237,14.6564885 L9.77099237,43.9694656 C9.77099237,46.6564885 11.9694656,48.8549618 14.6564885,48.8549618 L43.9694656,48.8549618 C46.6564885,48.8549618 48.8549618,46.6564885 48.8549618,43.9694656 L48.8549618,14.6564885 C48.8549618,11.9694656 46.6564885,9.77099237 43.9694656,9.77099237 L43.9694656,9.77099237 Z" id="Fill-2" fill="#651FFF"></path>
                    </g>
                </g>
                <g id="Group-11" transform="translate(107.814782, 114.998541) rotate(-10.000000) translate(-107.814782, -114.998541) translate(68.314782, 75.498541)">
                    <g id="Rectangle-1196-Copy-6">
                        <use fill="black" fill-opacity="1" filter="url(#filter-12)" xlink:href="#path-11"></use>
                        <use fill="#FFFFFF" fill-rule="evenodd" xlink:href="#path-11"></use>
                    </g>
                    <g id="filetype_excel" transform="translate(9.770992, 9.770992)">
                        <polygon id="Fill-1" points="-5.68434189e-14 58.6259542 58.6259542 58.6259542 58.6259542 -1.56319402e-13 -5.68434189e-14 -1.56319402e-13"></polygon>
                        <g id="Group-10" transform="translate(4.885496, 4.885496)" fill="#22BE73">
                            <path d="M47.1621374,41.632 L28.848855,41.632 L28.848855,38.3025344 L33.2873282,38.3025344 L33.2873282,34.4161221 L28.848855,34.4161221 L28.848855,32.1981069 L33.2873282,32.1981069 L33.2873282,28.3116947 L28.848855,28.3116947 L28.848855,26.0936794 L33.2873282,26.0936794 L33.2873282,22.2072672 L28.848855,22.2072672 L28.848855,19.9868092 L33.2873282,19.9868092 L33.2873282,16.1028397 L28.848855,16.1028397 L28.848855,13.8823817 L33.2873282,13.8823817 L33.2873282,9.99841221 L28.848855,9.99841221 L28.848855,6.66894656 L47.1621374,6.66894656 L47.1621374,41.632 L47.1621374,41.632 Z M16.3444275,33.1141374 C15.4015267,30.7984122 14.2509924,28.5632977 13.5743511,26.1425344 C12.819542,28.3947481 11.7422901,30.5223817 10.8775573,32.730626 C9.6610687,32.7135267 8.4470229,32.6646718 7.23053435,32.613374 C8.65709924,29.821313 10.0348092,27.0072672 11.5053435,24.2323053 C10.2546565,21.3742901 8.88427481,18.572458 7.59694656,15.731542 C8.81832061,15.6582595 10.0396947,15.5874198 11.2610687,15.5190229 C12.0867176,17.690626 12.9929771,19.832916 13.6745038,22.0582595 C14.4073282,19.6985649 15.5016794,17.4781069 16.4372519,15.1990229 C17.6928244,15.1086412 18.9532824,15.032916 20.2112977,14.9718473 C18.7309924,18.0057405 17.2433588,21.0420763 15.7337405,24.0661985 C17.260458,27.1758168 18.8189313,30.2610076 20.3505344,33.3681832 C19.0143511,33.2900153 17.6806107,33.2069618 16.3444275,33.1141374 L16.3444275,33.1141374 Z M48.8329771,37.2203969 C48.8280916,27.591084 48.8158779,17.961771 48.8427481,8.32757252 C48.8036641,7.38467176 48.8720611,6.34161832 48.300458,5.51841221 C47.4845802,4.9590229 46.4512977,5.0249771 45.5132824,4.98589313 C39.9584733,5.01520611 34.4036641,5.00299237 28.848855,5.00299237 L28.848855,0.564519084 L25.551145,0.564519084 C17.0381679,2.06680916 8.5178626,3.52757252 4.68958206e-13,5.00787786 L4.68958206e-13,43.852458 C8.46900763,45.3327634 16.9429008,46.7544427 25.4021374,48.2909313 L28.848855,48.2909313 L28.848855,43.2979542 C34.6039695,43.2857405 40.359084,43.3126107 46.1068702,43.2979542 C47.0351145,43.2588702 48.4225954,43.2295573 48.6448855,42.0765802 C48.9819847,40.4839084 48.8036641,38.8350534 48.8329771,37.2203969 L48.8329771,37.2203969 Z" id="Fill-2"></path>
                            <path d="M35.5077863,13.8821374 L43.2781679,13.8821374 L43.2781679,9.99816794 L35.5077863,9.99816794 L35.5077863,13.8821374 Z M35.5077863,19.9865649 L43.2781679,19.9865649 L43.2781679,16.1025954 L35.5077863,16.1025954 L35.5077863,19.9865649 Z M35.5077863,26.0909924 L43.2781679,26.0909924 L43.2781679,22.2070229 L35.5077863,22.2070229 L35.5077863,26.0909924 Z M35.5077863,32.1954198 L43.2781679,32.1954198 L43.2781679,28.3114504 L35.5077863,28.3114504 L35.5077863,32.1954198 Z M35.5077863,38.3022901 L43.2781679,38.3022901 L43.2781679,34.4183206 L35.5077863,34.4183206 L35.5077863,38.3022901 Z" id="Combined-Shape"></path>
                        </g>
                    </g>
                </g>
                <g id="Group-4" transform="translate(388.820630, 86.064353) rotate(-350.000000) translate(-388.820630, -86.064353) translate(349.320630, 46.564353)">
                    <g id="Rectangle-1196-Copy">
                        <use fill="black" fill-opacity="1" filter="url(#filter-14)" xlink:href="#path-13"></use>
                        <use fill="#FFFFFF" fill-rule="evenodd" xlink:href="#path-13"></use>
                    </g>
                    <g id="filetype_audio" transform="translate(9.770992, 9.770992)">
                        <polygon id="Fill-1" points="-1.13686838e-13 58.6259542 58.6259542 58.6259542 58.6259542 -6.39488462e-14 -1.13686838e-13 -6.39488462e-14"></polygon>
                        <path d="M29.3129771,7.32824427 L43.9694656,7.32824427 L43.9694656,17.0601527 L34.2375573,17.0601527 L34.2375573,41.5658015 C34.2375573,44.2381679 33.2629008,46.5270229 31.3160305,48.4348092 C29.3691603,50.3450382 27.0607634,51.2977099 24.3883969,51.2977099 C21.7160305,51.2977099 19.4271756,50.3450382 17.5193893,48.4348092 C15.6091603,46.5270229 14.6564885,44.2381679 14.6564885,41.5658015 C14.6564885,38.8934351 15.6091603,36.5850382 17.5193893,34.6381679 C19.4271756,32.6912977 21.7160305,31.7166412 24.3883969,31.7166412 C25.9932824,31.7166412 27.6323664,32.1758779 29.3129771,33.0919084 L29.3129771,7.32824427 Z" id="Fill-2" fill="#E91E63"></path>
                    </g>
                </g>
                <g id="Group-2" transform="translate(411.603053, 1.221374)">
                    <g id="Group-3">
                        <g id="Rectangle-1196">
                            <use fill="black" fill-opacity="1" filter="url(#filter-16)" xlink:href="#path-15"></use>
                            <use fill="#FFFFFF" fill-rule="evenodd" xlink:href="#path-15"></use>
                        </g>
                        <polygon id="Fill-1" points="9.77099237 68.3969466 68.3969466 68.3969466 68.3969466 9.77099237 9.77099237 9.77099237"></polygon>
                    </g>
                    <g id="filetype_book" transform="translate(9.770992, 9.770992)">
                        <polygon id="Fill-1" points="0 58.6259542 58.6259542 58.6259542 58.6259542 0 0 0"></polygon>
                        <path d="M14.6564885,9.77099237 L26.870229,9.77099237 L26.870229,29.3129771 L20.7633588,25.648855 L14.6564885,29.3129771 L14.6564885,9.77099237 Z M43.9694656,4.88549618 L14.6564885,4.88549618 C11.9572519,4.88549618 9.77099237,7.07175573 9.77099237,9.77099237 L9.77099237,48.8549618 C9.77099237,51.5541985 11.9572519,53.740458 14.6564885,53.740458 L43.9694656,53.740458 C46.6687023,53.740458 48.8549618,51.5541985 48.8549618,48.8549618 L48.8549618,9.77099237 C48.8549618,7.07175573 46.6687023,4.88549618 43.9694656,4.88549618 L43.9694656,4.88549618 Z" id="Fill-2" fill="#FF6D40"></path>
                    </g>
                </g>
            </g>
        </g>
    </g>
</svg>