<svg width="24" height="24" viewBox="0 0 24 24" fill="none" xmlns="http://www.w3.org/2000/svg">
<path d="M21 4C21 3.448 20.553 3 20 3H4C3.447 3 3 3.448 3 4V7C3 7.13 3.027 7.26 3.077 7.382C3.128 7.505 3.201 7.615 3.294 7.707L9 13.413V19.999C9 20.01 9.006 20.018 9.006 20.029C9.008 20.096 9.03 20.16 9.046 20.226C9.061 20.291 9.07 20.357 9.097 20.416C9.102 20.426 9.1 20.437 9.105 20.446C9.152 20.54 9.214 20.622 9.284 20.694C9.298 20.709 9.316 20.719 9.331 20.732C9.403 20.797 9.481 20.849 9.567 20.891C9.596 20.905 9.625 20.918 9.656 20.929C9.766 20.97 9.88 20.998 9.998 20.998H10C10.118 20.998 10.236 20.97 10.351 20.927C10.37 20.92 10.389 20.915 10.408 20.907C10.421 20.901 10.434 20.899 10.447 20.893L14.447 18.893C14.492 18.87 14.521 18.832 14.561 18.804C14.62 18.763 14.68 18.726 14.729 18.673C14.773 18.625 14.802 18.569 14.836 18.514C14.869 18.46 14.906 18.41 14.929 18.349C14.955 18.281 14.961 18.21 14.972 18.137C14.979 18.089 15 18.047 15 17.998V13.412L20.706 7.706C20.799 7.614 20.872 7.503 20.923 7.38C20.974 7.258 21 7.128 21 6.998V4.48C21 4.395 20.972 4.318 20.951 4.239C20.971 4.16 21 4.083 21 3.998V4ZM13.294 12.292C13.201 12.384 13.128 12.495 13.077 12.618C13.026 12.74 13 12.87 13 13V17.382L11 18.382V13C11 12.87 10.974 12.74 10.923 12.618C10.872 12.495 10.799 12.385 10.706 12.292L5 6.586V5H19V6.586L13.294 12.292Z" fill="currentColor"/>
</svg>
